<?xml version="1.0"?>
<svg xmlns="http://www.w3.org/2000/svg" xmlns:xlink="http://www.w3.org/1999/xlink" version="1.1" id="Capa_1" x="0px" y="0px" viewBox="0 0 480 480" style="enable-background:new 0 0 480 480;" xml:space="preserve" width="512px" height="512px" class=""><g><link xmlns="" type="text/css" id="dark-mode" rel="stylesheet" href=""/><style xmlns="" type="text/css" id="dark-mode-custom-style"/><path style="fill:#FFFFFF" d="M8,68l232,144L472,68V36H8V68z" data-original="#1B75BC" class="active-path" data-old_color="#ffffff"/><g>
	<path style="fill:#000000" d="M0,28v368h224v-16H16V82.4l224,139.016L464,82.4V388h16V28H0z M240,202.584L16,63.552V44h448v19.552   L240,202.584z" data-original="#231F20" class="" data-old_color="#231F20"/>
	<path style="fill:#000000" d="M344,244c-57.438,0.005-103.996,46.572-103.991,104.009   c0.005,57.438,46.572,103.996,104.009,103.991c18.249-0.002,36.176-4.805,51.981-13.928l-8-13.84   c-42.09,24.301-95.91,9.88-120.21-32.21s-9.88-95.91,32.21-120.21s95.91-9.88,120.21,32.21C427.93,317.393,431.996,332.56,432,348   v24c0,8.837-7.163,16-16,16s-16-7.163-16-16v-72h-16v8.888c-21.598-22.137-57.053-22.574-79.19-0.976   c-22.137,21.598-22.574,57.053-0.976,79.19c21.598,22.137,57.053,22.574,79.19,0.976c1.213-1.183,2.372-2.421,3.472-3.71   c6.843,16.295,25.599,23.957,41.894,17.114c11.873-4.986,19.601-16.604,19.61-29.482v-24C447.934,290.59,401.41,244.066,344,244   L344,244z M344,388c-22.091,0-40-17.909-40-40s17.909-40,40-40s40,17.909,40,40C383.974,370.08,366.08,387.974,344,388z" data-original="#231F20" class="" data-old_color="#231F20"/>
</g></g> </svg>
