<svg xmlns="http://www.w3.org/2000/svg" xmlns:xlink="http://www.w3.org/1999/xlink" xmlns:fi="http://pattern.flaticon.com/" x="0" y="0" width="700" height="350" viewBox="0 0 700 350"><rect x="0px" y="0px" width="100%" height="100%" opacity="1" fill="#ffffff"/><defs><g transform="matrix(1 0 0 1 237 209)" id="L1_0"><path d="M17,0H7v60h10h36V0H17z M9,58V2h6v56H9z M51,58H17V2h34V58z"/><path d="M46,24V10H22v14H46z M24,12h20v10H24V12z"/><rect x="27px" y="14px" width="14px" height="2px"/><rect x="27px" y="18px" width="14px" height="2px"/></g><path d="M13,0c-1.547,0-3.033,0.662-4.078,1.817C7.895,2.954,7.389,4.476,7.525,6H7.5v48.958C7.5,57.738,9.762,60,12.542,60H52.5V11  V9V0H13z M9.5,54.958V9.998c0.836,0.629,1.875,1.002,3,1.002v46.996C10.842,57.973,9.5,56.621,9.5,54.958z M50.5,58h-36V11h3v25.201  c0,0.682,0.441,1.262,1.099,1.444c0.137,0.037,0.273,0.056,0.408,0.056c0.015,0,0.029-0.005,0.044-0.006  c0.045-0.001,0.088-0.012,0.133-0.017c0.103-0.012,0.202-0.033,0.299-0.066c0.048-0.016,0.093-0.035,0.138-0.056  c0.094-0.043,0.18-0.097,0.263-0.159c0.036-0.027,0.073-0.05,0.106-0.08c0.111-0.099,0.212-0.211,0.292-0.346l4.217-7.028  l4.217,7.029c0.327,0.545,0.939,0.801,1.55,0.687c0.045-0.008,0.089-0.002,0.134-0.014c0.657-0.183,1.099-0.763,1.099-1.444V11h19  V58z M29.64,9.483l-0.003,0.007L29.5,9.764v0.042l-0.1,0.23l0.1,0.152v0.112V34.39l-5-8.333l-5,8.333V10.236L21.118,7h9.764  L29.64,9.483z M32.118,9l2-4H19.882l-2,4h-4.67c-1.894,0-3.516-1.379-3.693-3.14c-0.101-0.998,0.214-1.957,0.887-2.701  C11.071,2.422,12.017,2,13,2h37.5v1h-5c-0.553,0-1,0.447-1,1s0.447,1,1,1h5v1h-4c-0.553,0-1,0.447-1,1s0.447,1,1,1h4v1H32.118z" transform="matrix(1 0 0 1 139.00000003051764 267)" id="L1_1"/><path d="M0,647.589c0,49.892,40.588,90.479,90.479,90.479h20.108h552.079h40.211h41.895v-40.212h-41.895V597.322h41.895v-17.594   h20.104h30.16v-40.212h-30.16V438.989h30.16v-40.211h-30.16h-2.513v-13.395v-20.107v-0.863l-49.647-92.992h52.161v-54.073   L633.665,56.968H170.738L51.356,245.075c-20.417,16.612-33.76,41.625-33.76,69.935c0,49.581,40.114,89.89,89.593,90.383   c-33.291,13.372-56.922,45.847-56.922,83.864c0,27.604,12.688,52.046,32.242,68.656C36.395,562.022,0,600.426,0,647.589z    M57.806,315.01c0-18.75,10.429-34.946,25.686-43.586h599.278v93.854H108.074C80.359,365.276,57.806,342.72,57.806,315.01z    M140.747,438.991h20.106h563.809v100.526H160.853h-20.106c-27.715,0-50.268-22.541-50.268-50.26   C90.48,461.53,113.032,438.991,140.747,438.991z M90.48,597.322h20.108h552.079v100.533h-552.08H90.479   c-27.713,0-50.265-22.541-50.265-50.267C40.214,619.862,62.767,597.322,90.48,597.322z" transform="matrix(0.07546837627887726 0 0 0.07546837627887726 114 62.999998783956926)" id="L1_2"/><g transform="matrix(0.20349813997745514 0 0 0.20349813997745514 295 347)" id="L1_3"><path d="M212.921,0h-131c-3.313,0-6,2.687-6,6v282.843c0,2.302,1.317,4.402,3.391,5.403c0.83,0.401,1.721,0.597,2.608,0.597   c1.33,0,2.65-0.442,3.731-1.301l65.491-51.992c2.596-2.061,3.029-5.834,0.969-8.43c-2.06-2.595-5.834-3.028-8.43-0.969   l-55.761,44.267V12h119v264.421l-26.771-21.247c-2.594-2.06-6.369-1.625-8.43,0.97c-2.06,2.596-1.625,6.37,0.971,8.43   l36.501,28.969c1.801,1.43,4.266,1.704,6.339,0.703c2.073-1.001,3.391-3.101,3.391-5.403V6C218.921,2.687,216.235,0,212.921,0z"/><path d="M102.921,35.755h89c3.313,0,6-2.687,6-6s-2.687-6-6-6h-89c-3.313,0-6,2.687-6,6S99.608,35.755,102.921,35.755z"/><path d="M102.921,59.409h89c3.313,0,6-2.687,6-6s-2.687-6-6-6h-89c-3.313,0-6,2.687-6,6S99.608,59.409,102.921,59.409z"/><path d="M165.421,71.063h-62.5c-3.313,0-6,2.687-6,6s2.687,6,6,6h62.5c3.313,0,6-2.687,6-6S168.735,71.063,165.421,71.063z"/></g><g transform="matrix(1.861273169517517 0 0 1.861273169517517 66.00000181764949 190)" id="L1_4"><path d="M7.414,10.79l2.146,0.369c-0.163-0.531-0.271-1.088-0.316-1.663l1.995,0.287v1.219h5.234V10.14h0.924v0.862h5.233V9.814    l1.666-0.258c-0.018,0.404-0.069,0.832-0.148,1.264l1.658-0.312C25.452,6.045,23.743,0,16.645,0c-1.008,0-2.183,0.124-2.693,0.354    c-0.512,0.229-0.604,0.752-0.934,0.863c-0.344,0.116-0.832,0.069-1.135,0.216C7.155,3.71,7.32,9.261,7.32,9.261L7.414,10.79z     M15.892,10.42h-4.072V8.347h4.072V10.42z M22.048,10.42h-4.07V8.347h4.07V10.42z M9.271,8.166c2.104-0.143,4.48-1.8,4.665-4.108    c2.663,2.205,6.437,2.313,9.581,2.594c0.393,0.184,0.679,0.975,0.76,2.023L22.63,8.93V7.766h-5.234v1.211h-0.924V7.766h-5.234    v1.135L9.216,8.61C9.235,8.463,9.254,8.316,9.271,8.166z"/><path d="M29.216,21.348c0-1.089-0.438-2.039-1.09-2.582v-7.774l-11.862,1.89l-11.866-1.89v7.569    c-0.811,0.481-1.377,1.545-1.377,2.787c0,1.241,0.566,2.305,1.377,2.786v6.212l11.866,1.891l11.862-1.889V23.93    C28.779,23.385,29.216,22.436,29.216,21.348z M15.725,31.061l-10.25-1.633v-5.033c1.235-0.08,2.221-1.408,2.221-3.047    c0-1.64-0.985-2.968-2.221-3.049v-6.046l10.25,1.634V31.061z M27.05,29.428l-10.249,1.633V13.887l10.249-1.634v2.166v3.888    c-0.059-0.006-0.112-0.021-0.172-0.021c-1.291,0-2.338,1.372-2.338,3.062c0,1.691,1.047,3.063,2.338,3.063    c0.06,0,0.113-0.017,0.172-0.022V29.428z"/></g><path d="M404.72,82.944c-0.027,0-0.054,0-0.08,0h0h-27.12v-9.28c0.146-3.673-2.23-6.974-5.76-8    c-18.828-4.934-38.216-7.408-57.68-7.36c-32,0-75.6,7.2-107.84,40c-32-33.12-75.92-40-107.84-40    c-19.464-0.048-38.852,2.426-57.68,7.36c-3.53,1.026-5.906,4.327-5.76,8v9.2H8c-4.418,0-8,3.582-8,8v255.52c0,4.418,3.582,8,8,8    c1.374-0.004,2.724-0.362,3.92-1.04c0.8-0.4,80.8-44.16,192.48-16h1.2h0.72c0.638,0.077,1.282,0.077,1.92,0    c112-28.4,192,15.28,192.48,16c2.475,1.429,5.525,1.429,8,0c2.46-1.42,3.983-4.039,4-6.88V90.944    C412.72,86.526,409.139,82.944,404.72,82.944z M16,333.664V98.944h19.12v200.64c-0.05,4.418,3.491,8.04,7.909,8.09    c0.432,0.005,0.864-0.025,1.291-0.09c16.55-2.527,33.259-3.864,50-4c23.19-0.402,46.283,3.086,68.32,10.32    C112.875,307.886,62.397,314.688,16,333.664z M94.32,287.664c-14.551,0.033-29.085,0.968-43.52,2.8V79.984    c15.576-3.47,31.482-5.241,47.44-5.28c29.92,0,71.2,6.88,99.84,39.2l0.24,199.28C181.68,302.304,149.2,287.664,94.32,287.664z     M214.32,113.904c28.64-32,69.92-39.2,99.84-39.2c15.957,0.047,31.863,1.817,47.44,5.28v210.48    c-14.354-1.849-28.808-2.811-43.28-2.88c-54.56,0-87.12,14.64-104,25.52V113.904z M396.64,333.664    c-46.496-19.028-97.09-25.831-146.96-19.76c22.141-7.26,45.344-10.749,68.64-10.32c16.846,0.094,33.663,1.404,50.32,3.92    c4.368,0.663,8.447-2.341,9.11-6.709c0.065-0.427,0.095-0.859,0.09-1.291V98.944h19.12L396.64,333.664z" transform="matrix(0.1453770101070404 0 0 0.1453770101070404 -25 251.0000006033714)" id="L1_5"/><path d="M310.634,43.714H297.17c-7.194,0-13.026-5.833-13.026-13.026V30.25C284.144,13.543,270.6,0,253.893,0h-0.699   c-16.707,0-30.25,13.543-30.25,30.25v0.438c0,7.194-5.833,13.027-13.026,13.027h-13.464c-14.341,0-25.966,11.625-25.966,25.966   v0.525c0,14.341,11.625,25.966,25.966,25.966h114.183c14.34,0,25.965-11.626,25.965-25.966V69.68   C336.601,55.34,324.976,43.714,310.634,43.714z M253.543,43.714c-7.243,0-13.114-5.872-13.114-13.114   c0-7.243,5.872-13.115,13.114-13.115c7.243,0,13.114,5.872,13.114,13.115C266.657,37.843,260.786,43.714,253.543,43.714z    M311.929,550.8H91.8c-19.314,0-34.971-15.657-34.971-34.971V96.171c0-19.314,15.657-34.971,26.228-34.971h70.854   c-0.591,2.904-0.91,5.914-0.91,9.008c0,23.958,19.492,43.45,43.454,43.45h114.178c23.963,0,43.453-19.492,43.453-43.979   c0-2.903-0.311-5.733-0.855-8.479h53.312c28.059,0,43.715,15.657,43.715,34.971v262.728c-2.906-0.181-5.791-0.442-8.742-0.442   c-12.094,0-23.771,1.704-34.973,4.604V157.371H100.543v349.715h201.528C303.029,522.453,306.387,537.162,311.929,550.8z    M441.515,384.686c-62.771,0-113.656,50.887-113.656,113.657S378.743,612,441.515,612s113.656-50.887,113.656-113.657   S504.286,384.686,441.515,384.686z M515.782,474.991l-69.943,78.686c-3.445,3.877-8.244,5.865-13.076,5.865   c-3.838,0-7.697-1.255-10.916-3.833l-43.715-34.971c-7.539-6.028-8.764-17.034-2.727-24.573c6.027-7.547,17.037-8.769,24.576-2.731   l30.748,24.598l58.916-66.28c6.408-7.215,17.465-7.872,24.684-1.451C521.55,456.721,522.198,467.769,515.782,474.991z M362.829,306   H222.944c-4.829,0-8.743-3.915-8.743-8.743v-8.743c0-4.829,3.914-8.743,8.743-8.743h139.885c4.828,0,8.744,3.915,8.744,8.743v8.743   C371.571,302.085,367.657,306,362.829,306z M362.829,227.314H222.944c-4.829,0-8.743-3.915-8.743-8.743v-8.743   c0-4.829,3.914-8.743,8.743-8.743h139.885c4.828,0,8.744,3.915,8.744,8.743v8.743C371.571,223.4,367.657,227.314,362.829,227.314z    M319.114,375.943h-96.17c-4.829,0-8.743-3.915-8.743-8.743v-8.743c0-4.829,3.914-8.743,8.743-8.743h96.17   c4.83,0,8.744,3.914,8.744,8.743v8.743C327.856,372.028,323.944,375.943,319.114,375.943z M301.629,454.629h-78.686   c-4.829,0-8.743-3.915-8.743-8.743v-8.743c0-4.829,3.914-8.743,8.743-8.743h78.686c4.829,0,8.743,3.914,8.743,8.743v8.743   C310.372,450.714,306.458,454.629,301.629,454.629z M197.461,194.981l-32.199,36.224c-1.586,1.785-3.795,2.701-6.02,2.701   c-1.767,0-3.543-0.578-5.025-1.765l-20.125-16.099c-3.471-2.775-4.034-7.841-1.256-11.312c2.774-3.475,7.844-4.037,11.314-1.258   l14.155,11.323l27.123-30.513c2.95-3.321,8.04-3.624,11.363-0.668C200.117,186.57,200.415,191.656,197.461,194.981z    M197.461,272.767l-32.199,36.223c-1.586,1.785-3.795,2.7-6.02,2.7c-1.767,0-3.543-0.577-5.025-1.765l-20.125-16.099   c-3.471-2.775-4.034-7.841-1.256-11.312c2.774-3.475,7.844-4.037,11.314-1.258l14.155,11.324l27.123-30.513   c2.95-3.321,8.04-3.624,11.363-0.667C200.117,264.355,200.415,269.442,197.461,272.767z M197.461,347.156l-32.199,36.224   c-1.586,1.784-3.795,2.7-6.02,2.7c-1.767,0-3.543-0.577-5.025-1.765l-20.125-16.1c-3.471-2.774-4.034-7.841-1.256-11.312   c2.774-3.475,7.844-4.037,11.314-1.258l14.155,11.323l27.123-30.513c2.95-3.321,8.04-3.624,11.363-0.668   C200.117,338.745,200.415,343.831,197.461,347.156z M197.461,422.07l-32.199,36.224c-1.586,1.785-3.795,2.7-6.02,2.7   c-1.767,0-3.543-0.577-5.025-1.765l-20.125-16.1c-3.471-2.774-4.034-7.841-1.256-11.312c2.774-3.475,7.844-4.037,11.314-1.258   l14.155,11.323l27.123-30.513c2.95-3.321,8.04-3.624,11.363-0.668C200.117,413.659,200.415,418.746,197.461,422.07z" transform="matrix(0.09803921729326248 0 0 0.09803921729326248 236 85)" id="L1_6"/><g transform="matrix(0.20349882543087006 0 0 0.20349882543087006 202 -6)" id="L1_8"><path d="M288.842,0H6C2.687,0,0,2.687,0,6v282.842c0,3.313,2.687,6,6,6h240.421c3.313,0,6-2.687,6-6s-2.687-6-6-6H12V12h270.842   v276.842c0,3.313,2.687,6,6,6s6-2.687,6-6V6C294.842,2.687,292.155,0,288.842,0z"/><path d="M65.815,62.421c-12.683,0-23,10.317-23,23s10.317,23,23,23s23-10.317,23-23S78.498,62.421,65.815,62.421z M65.815,96.421   c-6.065,0-11-4.935-11-11s4.935-11,11-11s11,4.935,11,11S71.881,96.421,65.815,96.421z"/><path d="M246.815,79.421h-140c-3.313,0-6,2.687-6,6s2.687,6,6,6h140c3.313,0,6-2.687,6-6S250.129,79.421,246.815,79.421z"/><path d="M65.815,124.421c-3.313,0-6,2.687-6,6s2.687,6,6,6c6.065,0,11,4.935,11,11s-4.935,11-11,11s-11-4.935-11-11   c0-3.313-2.687-6-6-6s-6,2.687-6,6c0,12.683,10.317,23,23,23s23-10.317,23-23S78.498,124.421,65.815,124.421z"/><path d="M246.815,141.421h-140c-3.313,0-6,2.687-6,6s2.687,6,6,6h140c3.313,0,6-2.687,6-6S250.129,141.421,246.815,141.421z"/><path d="M65.815,186.421c-12.683,0-23,10.317-23,23s10.317,23,23,23s23-10.317,23-23S78.498,186.421,65.815,186.421z    M65.815,220.421c-6.065,0-11-4.935-11-11s4.935-11,11-11s11,4.935,11,11S71.881,220.421,65.815,220.421z"/><path d="M246.815,203.421h-140c-3.313,0-6,2.687-6,6s2.687,6,6,6h140c3.313,0,6-2.687,6-6S250.129,203.421,246.815,203.421z"/></g><g transform="matrix(1.071447730064392 0 0 1.071447730064392 49 -13.999999149852272)" id="L1_10"><path d="M55.125,32.588l-2.85-2.85c-1.164-1.164-3.057-1.162-4.221,0L32.664,45.129l-2.121,7.779l-0.519,0.519   c-0.388,0.388-0.389,1.014-0.006,1.405l-0.005,0.02l0.019-0.005c0.194,0.19,0.446,0.288,0.699,0.288   c0.256,0,0.512-0.098,0.707-0.293l0.52-0.52l7.778-2.121l15.39-15.391C56.29,35.646,56.29,33.752,55.125,32.588z M34.973,45.649   l10.243-10.242l4.243,4.242L39.216,49.892L34.973,45.649z M34.07,47.574l3.22,3.22l-4.428,1.208L34.07,47.574z M53.711,35.396   l-2.839,2.839l-4.243-4.242l2.839-2.839c0.385-0.385,1.01-0.384,1.394-0.001l2.85,2.85C54.096,34.386,54.096,35.012,53.711,35.396z   "/><path d="M27,12.865c-0.552,0-1,0.447-1,1s0.448,1,1,1h18c0.552,0,1-0.447,1-1s-0.448-1-1-1H27z"/><path d="M46,27.865c0-0.553-0.448-1-1-1H27c-0.552,0-1,0.447-1,1s0.448,1,1,1h18C45.552,28.865,46,28.417,46,27.865z"/><path d="M20.58,8.106c-0.418-0.36-1.05-0.313-1.41,0.108l-6.248,7.288L9.1,12.636c-0.442-0.33-1.068-0.242-1.4,0.2   c-0.332,0.441-0.242,1.068,0.2,1.399l4.571,3.429c0.18,0.135,0.39,0.2,0.6,0.2c0.283,0,0.563-0.119,0.76-0.35l6.857-8   C21.047,9.096,20.999,8.465,20.58,8.106z"/><path d="M20.58,22.106c-0.418-0.36-1.05-0.313-1.41,0.108l-6.248,7.288L9.1,26.636c-0.442-0.331-1.068-0.241-1.4,0.2   s-0.242,1.068,0.2,1.399l4.571,3.429c0.18,0.135,0.39,0.2,0.6,0.2c0.283,0,0.563-0.119,0.76-0.35l6.857-8   C21.047,23.096,20.999,22.465,20.58,22.106z"/><path d="M19.169,37.214l-6.248,7.287L9.1,41.635c-0.442-0.331-1.068-0.241-1.4,0.2s-0.242,1.068,0.2,1.399l4.571,3.429   c0.18,0.135,0.39,0.2,0.6,0.2c0.283,0,0.563-0.119,0.76-0.35l6.857-7.999c0.359-0.419,0.311-1.05-0.108-1.409   C20.161,36.746,19.529,36.794,19.169,37.214z"/><path d="M25,52.865H12.176C6.565,52.865,2,48.3,2,42.689V13.04C2,7.429,6.565,2.865,12.176,2.865h29.648   C47.435,2.865,52,7.429,52,13.04v11.824c0,0.553,0.448,1,1,1s1-0.447,1-1V13.04c0-6.714-5.462-12.176-12.176-12.176H12.176   C5.462,0.865,0,6.326,0,13.04v29.648c0,6.714,5.462,12.176,12.176,12.176H25c0.552,0,1-0.447,1-1S25.552,52.865,25,52.865z"/></g><g transform="matrix(0.17184197902679443 0 0 0.17184197902679443 -23 153.00000058735054)" id="L1_11"><path d="M341.658,6.227H83.455c-4.143,0-7.5,3.357-7.5,7.5V162.83H7.5c-4.143,0-7.5,3.357-7.5,7.5v127.123    c0,25.076,20.4,45.479,45.477,45.479c0.646,0,258.203,0,258.203,0c25.076,0,45.479-20.402,45.479-45.479V13.727    C349.158,9.584,345.801,6.227,341.658,6.227z M15,297.453V177.83h60.955v119.623c0,16.805-13.672,30.479-30.479,30.479    C28.672,327.932,15,314.258,15,297.453z M334.158,297.453c0,16.805-13.672,30.479-30.479,30.479H79.203    c7.299-8.07,11.752-18.766,11.752-30.479V21.227h243.203V297.453z"/><path d="M202.023,92.855h96.127c4.143,0,7.5-3.357,7.5-7.5c0-4.143-3.357-7.5-7.5-7.5h-96.127c-4.143,0-7.5,3.357-7.5,7.5    C194.523,89.498,197.881,92.855,202.023,92.855z"/><path d="M202.023,175.248h96.127c4.143,0,7.5-3.357,7.5-7.5c0-4.143-3.357-7.5-7.5-7.5h-96.127c-4.143,0-7.5,3.357-7.5,7.5    C194.523,171.891,197.881,175.248,202.023,175.248z"/><path d="M202.023,257.643h96.127c4.143,0,7.5-3.357,7.5-7.5c0-4.143-3.357-7.5-7.5-7.5h-96.127c-4.143,0-7.5,3.357-7.5,7.5    C194.523,254.285,197.881,257.643,202.023,257.643z"/><path d="M132.814,101.295c1.418,1.5,3.391,2.35,5.453,2.35c0.02,0,0.041,0,0.063,0c2.086-0.018,4.07-0.902,5.477-2.443    l41.197-45.121c2.793-3.059,2.576-7.803-0.482-10.596c-3.059-2.791-7.803-2.576-10.596,0.482l-35.752,39.156l-11.129-11.785    c-2.846-3.012-7.594-3.146-10.604-0.303c-3.012,2.844-3.146,7.59-0.303,10.602L132.814,101.295z"/><path d="M173.926,131.941l-35.752,39.154l-11.131-11.783c-2.844-3.014-7.592-3.148-10.602-0.303    c-3.012,2.844-3.146,7.59-0.303,10.602l16.676,17.656c1.418,1.5,3.391,2.35,5.453,2.35c0.02,0,0.041,0,0.063,0    c2.086-0.018,4.07-0.902,5.477-2.443l41.197-45.119c2.791-3.059,2.576-7.803-0.482-10.596S176.719,128.881,173.926,131.941z"/><path d="M173.926,217.914l-35.752,39.154l-11.131-11.783c-2.844-3.014-7.592-3.149-10.602-0.303    c-3.012,2.844-3.146,7.59-0.303,10.602l16.676,17.656c1.418,1.5,3.391,2.35,5.453,2.35c0.02,0,0.041,0,0.063,0    c2.086-0.018,4.07-0.902,5.477-2.443l41.197-45.119c2.791-3.059,2.576-7.803-0.482-10.596    C181.463,214.639,176.719,214.855,173.926,217.914z"/></g><g transform="matrix(0.12958963215351105 0 0 0.12958963215351105 151 156)" id="L1_12"><path d="m367.5,32h-57.734c-3.138-9.29-11.93-16-22.266-16h-24.416c-7.41-9.965-19.149-16-31.584-16s-24.174,6.035-31.584,16h-24.416c-10.336,0-19.128,6.71-22.266,16h-57.734c-17.369,0-31.5,14.131-31.5,31.5v368c0,17.369 14.131,31.5 31.5,31.5h272c17.369,0 31.5-14.131 31.5-31.5v-368c0-17.369-14.131-31.5-31.5-31.5zm-214.266,47c3.138,9.29 11.93,16 22.266,16h112c10.336,0 19.128-6.71 22.266-16h42.234v337h-241v-337h42.234zm22.266-48h28.438c2.67,0 5.139-1.42 6.482-3.728 4.473-7.684 12.353-12.272 21.08-12.272s16.607,4.588 21.079,12.272c1.344,2.308 3.813,3.728 6.482,3.728h28.439c4.687,0 8.5,3.813 8.5,8.5v31.981c0,0.007-0.001,0.013-0.001,0.019 0,0.003 0,0.006 0,0.01-0.005,4.682-3.816,8.49-8.5,8.49h-112c-4.68,0-8.488-3.803-8.499-8.481 0-0.007 0.001-0.013 0.001-0.019 0-0.013-0.002-0.026-0.002-0.039v-31.961c0.001-4.687 3.814-8.5 8.501-8.5zm208.5,400.5c0,9.098-7.402,16.5-16.5,16.5h-272c-9.098,0-16.5-7.402-16.5-16.5v-368c0-9.098 7.402-16.5 16.5-16.5h56.5v17h-48.5c-4.143,0-7.5,3.357-7.5,7.5v352c0,4.143 3.357,7.5 7.5,7.5h256c4.143,0 7.5-3.357 7.5-7.5v-352c0-4.143-3.357-7.5-7.5-7.5h-48.5v-17h56.5c9.098,0 16.5,7.402 16.5,16.5v368z"/><path d="m231.5,63c4.143,0 7.5-3.357 7.5-7.5v-16c0-4.143-3.357-7.5-7.5-7.5s-7.5,3.357-7.5,7.5v16c0,4.143 3.357,7.5 7.5,7.5z"/><path d="m239.5,167h48c4.143,0 7.5-3.357 7.5-7.5s-3.357-7.5-7.5-7.5h-48c-4.143,0-7.5,3.357-7.5,7.5s3.357,7.5 7.5,7.5z"/><path d="m239.5,199h80c4.143,0 7.5-3.357 7.5-7.5s-3.357-7.5-7.5-7.5h-80c-4.143,0-7.5,3.357-7.5,7.5s3.357,7.5 7.5,7.5z"/><path d="m162.196,196.804c1.465,1.464 3.385,2.196 5.304,2.196s3.839-0.732 5.304-2.196l40-40c2.929-2.93 2.929-7.678 0-10.607-2.93-2.928-7.678-2.928-10.607,0l-34.697,34.697-18.696-18.697c-2.93-2.928-7.678-2.928-10.607,0-2.929,2.93-2.929,7.678 0,10.607l23.999,24z"/><path d="m239.5,247h48c4.143,0 7.5-3.357 7.5-7.5s-3.357-7.5-7.5-7.5h-48c-4.143,0-7.5,3.357-7.5,7.5s3.357,7.5 7.5,7.5z"/><path d="m239.5,279h80c4.143,0 7.5-3.357 7.5-7.5s-3.357-7.5-7.5-7.5h-80c-4.143,0-7.5,3.357-7.5,7.5s3.357,7.5 7.5,7.5z"/><path d="m162.196,276.804c1.465,1.464 3.385,2.196 5.304,2.196s3.839-0.732 5.304-2.196l40-40c2.929-2.93 2.929-7.678 0-10.607-2.93-2.928-7.678-2.928-10.607,0l-34.697,34.697-18.696-18.697c-2.93-2.928-7.678-2.928-10.607,0-2.929,2.93-2.929,7.678 0,10.607l23.999,24z"/><path d="m239.5,327h48c4.143,0 7.5-3.357 7.5-7.5s-3.357-7.5-7.5-7.5h-48c-4.143,0-7.5,3.357-7.5,7.5s3.357,7.5 7.5,7.5z"/><path d="m239.5,359h80c4.143,0 7.5-3.357 7.5-7.5s-3.357-7.5-7.5-7.5h-80c-4.143,0-7.5,3.357-7.5,7.5s3.357,7.5 7.5,7.5z"/><path d="m162.196,356.804c1.465,1.464 3.385,2.196 5.304,2.196s3.839-0.732 5.304-2.196l40-40c2.929-2.93 2.929-7.678 0-10.607-2.93-2.928-7.678-2.928-10.607,0l-34.697,34.697-18.696-18.697c-2.93-2.928-7.678-2.928-10.607,0-2.929,2.93-2.929,7.678 0,10.607l23.999,24z"/></g><g transform="matrix(0.12302645295858383 0 0 0.12302645295858383 4.999998498212221 71)" id="L1_13"><path d="M80.2,62.7c-4.8-4.8-12.5-4.8-17.3-0.1C58,67.4,58,75.1,62.8,79.9L92,109.3c2.3,2.3,5.4,3.6,8.7,3.6l0,0    c3.2,0,6.3-1.3,8.6-3.6l88.9-88.4c4.8-4.8,4.8-12.5,0.1-17.3c-4.8-4.8-12.5-4.8-17.3,0l-26.9,26.7C139.8,15.5,119.9,7,99,7    C56.7,7,22.3,41.4,22.3,83.7s34.4,76.7,76.7,76.7c34.1,0,63.6-21.9,73.5-54.5c2-6.5-1.7-13.3-8.2-15.3c-6.5-1.9-13.3,1.7-15.3,8.2    c-6.6,21.8-27.2,37.1-50,37.1c-28.8,0-52.2-23.4-52.2-52.2S70.2,31.5,99,31.5c14.3,0,27.9,6,37.7,16.2l-35.9,35.7L80.2,62.7z"/><path d="M99,170.6c-42.3,0-76.7,34.4-76.7,76.7S56.7,324,99,324s76.7-34.4,76.7-76.7S141.3,170.6,99,170.6z M99,299.5    c-28.8,0-52.2-23.4-52.2-52.2s23.4-52.2,52.2-52.2s52.2,23.4,52.2,52.2S127.8,299.5,99,299.5z"/><path d="M175.7,411c0-42.3-34.4-76.7-76.7-76.7S22.3,368.7,22.3,411s34.4,76.7,76.7,76.7S175.7,453.3,175.7,411z M99,463.3    c-28.8,0-52.2-23.4-52.2-52.2s23.4-52.2,52.2-52.2s52.2,23.4,52.2,52.2S127.8,463.3,99,463.3z"/><path d="M453.1,235H214.8c-6.8,0-12.3,5.5-12.3,12.3s5.5,12.3,12.3,12.3h238.3c6.8,0,12.3-5.5,12.3-12.3S459.9,235,453.1,235z"/><path d="M453.1,71.5H214.8c-6.8,0-12.3,5.5-12.3,12.3s5.5,12.3,12.3,12.3h238.3c6.8,0,12.3-5.5,12.3-12.3S459.9,71.5,453.1,71.5z"/><path d="M453.1,398.8H214.8c-6.8,0-12.3,5.5-12.3,12.3s5.5,12.3,12.3,12.3h238.3c6.8,0,12.3-5.5,12.3-12.3    C465.4,404.2,459.9,398.8,453.1,398.8z"/></g></defs><g fi:class="KUsePattern"><pattern id="pattern_L1_0" width="350" height="350" patternUnits="userSpaceOnUse"><use xlink:href="#L1_0" x="-350" y="-350"/><use xlink:href="#L1_0" x="0" y="-350"/><use xlink:href="#L1_0" x="350" y="-350"/><use xlink:href="#L1_0" x="-350" y="0"/><use xlink:href="#L1_0" x="0" y="0"/><use xlink:href="#L1_0" x="350" y="0"/><use xlink:href="#L1_0" x="-350" y="350"/><use xlink:href="#L1_0" x="0" y="350"/><use xlink:href="#L1_0" x="350" y="350"/></pattern><rect x="0" y="0" width="100%" height="100%" fill="url(#pattern_L1_0)"/></g><g fi:class="KUsePattern"><pattern id="pattern_L1_1" width="350" height="350" patternUnits="userSpaceOnUse"><use xlink:href="#L1_1" x="-350" y="-350"/><use xlink:href="#L1_1" x="0" y="-350"/><use xlink:href="#L1_1" x="350" y="-350"/><use xlink:href="#L1_1" x="-350" y="0"/><use xlink:href="#L1_1" x="0" y="0"/><use xlink:href="#L1_1" x="350" y="0"/><use xlink:href="#L1_1" x="-350" y="350"/><use xlink:href="#L1_1" x="0" y="350"/><use xlink:href="#L1_1" x="350" y="350"/></pattern><rect x="0" y="0" width="100%" height="100%" fill="url(#pattern_L1_1)"/></g><g fi:class="KUsePattern"><pattern id="pattern_L1_2" width="350" height="350" patternUnits="userSpaceOnUse"><use xlink:href="#L1_2" x="-350" y="-350"/><use xlink:href="#L1_2" x="0" y="-350"/><use xlink:href="#L1_2" x="350" y="-350"/><use xlink:href="#L1_2" x="-350" y="0"/><use xlink:href="#L1_2" x="0" y="0"/><use xlink:href="#L1_2" x="350" y="0"/><use xlink:href="#L1_2" x="-350" y="350"/><use xlink:href="#L1_2" x="0" y="350"/><use xlink:href="#L1_2" x="350" y="350"/></pattern><rect x="0" y="0" width="100%" height="100%" fill="url(#pattern_L1_2)"/></g><g fi:class="KUsePattern"><pattern id="pattern_L1_3" width="350" height="350" patternUnits="userSpaceOnUse"><use xlink:href="#L1_3" x="-350" y="-350"/><use xlink:href="#L1_3" x="0" y="-350"/><use xlink:href="#L1_3" x="350" y="-350"/><use xlink:href="#L1_3" x="-350" y="0"/><use xlink:href="#L1_3" x="0" y="0"/><use xlink:href="#L1_3" x="350" y="0"/><use xlink:href="#L1_3" x="-350" y="350"/><use xlink:href="#L1_3" x="0" y="350"/><use xlink:href="#L1_3" x="350" y="350"/></pattern><rect x="0" y="0" width="100%" height="100%" fill="url(#pattern_L1_3)"/></g><g fi:class="KUsePattern"><pattern id="pattern_L1_4" width="350" height="350" patternUnits="userSpaceOnUse"><use xlink:href="#L1_4" x="-350" y="-350"/><use xlink:href="#L1_4" x="0" y="-350"/><use xlink:href="#L1_4" x="350" y="-350"/><use xlink:href="#L1_4" x="-350" y="0"/><use xlink:href="#L1_4" x="0" y="0"/><use xlink:href="#L1_4" x="350" y="0"/><use xlink:href="#L1_4" x="-350" y="350"/><use xlink:href="#L1_4" x="0" y="350"/><use xlink:href="#L1_4" x="350" y="350"/></pattern><rect x="0" y="0" width="100%" height="100%" fill="url(#pattern_L1_4)"/></g><g fi:class="KUsePattern"><pattern id="pattern_L1_5" width="350" height="350" patternUnits="userSpaceOnUse"><use xlink:href="#L1_5" x="-350" y="-350"/><use xlink:href="#L1_5" x="0" y="-350"/><use xlink:href="#L1_5" x="350" y="-350"/><use xlink:href="#L1_5" x="-350" y="0"/><use xlink:href="#L1_5" x="0" y="0"/><use xlink:href="#L1_5" x="350" y="0"/><use xlink:href="#L1_5" x="-350" y="350"/><use xlink:href="#L1_5" x="0" y="350"/><use xlink:href="#L1_5" x="350" y="350"/></pattern><rect x="0" y="0" width="100%" height="100%" fill="url(#pattern_L1_5)"/></g><g fi:class="KUsePattern"><pattern id="pattern_L1_6" width="350" height="350" patternUnits="userSpaceOnUse"><use xlink:href="#L1_6" x="-350" y="-350"/><use xlink:href="#L1_6" x="0" y="-350"/><use xlink:href="#L1_6" x="350" y="-350"/><use xlink:href="#L1_6" x="-350" y="0"/><use xlink:href="#L1_6" x="0" y="0"/><use xlink:href="#L1_6" x="350" y="0"/><use xlink:href="#L1_6" x="-350" y="350"/><use xlink:href="#L1_6" x="0" y="350"/><use xlink:href="#L1_6" x="350" y="350"/></pattern><rect x="0" y="0" width="100%" height="100%" fill="url(#pattern_L1_6)"/></g><g fi:class="KUsePattern"><pattern id="pattern_L1_8" width="350" height="350" patternUnits="userSpaceOnUse"><use xlink:href="#L1_8" x="-350" y="-350"/><use xlink:href="#L1_8" x="0" y="-350"/><use xlink:href="#L1_8" x="350" y="-350"/><use xlink:href="#L1_8" x="-350" y="0"/><use xlink:href="#L1_8" x="0" y="0"/><use xlink:href="#L1_8" x="350" y="0"/><use xlink:href="#L1_8" x="-350" y="350"/><use xlink:href="#L1_8" x="0" y="350"/><use xlink:href="#L1_8" x="350" y="350"/></pattern><rect x="0" y="0" width="100%" height="100%" fill="url(#pattern_L1_8)"/></g><g fi:class="KUsePattern"><pattern id="pattern_L1_10" width="350" height="350" patternUnits="userSpaceOnUse"><use xlink:href="#L1_10" x="-350" y="-350"/><use xlink:href="#L1_10" x="0" y="-350"/><use xlink:href="#L1_10" x="350" y="-350"/><use xlink:href="#L1_10" x="-350" y="0"/><use xlink:href="#L1_10" x="0" y="0"/><use xlink:href="#L1_10" x="350" y="0"/><use xlink:href="#L1_10" x="-350" y="350"/><use xlink:href="#L1_10" x="0" y="350"/><use xlink:href="#L1_10" x="350" y="350"/></pattern><rect x="0" y="0" width="100%" height="100%" fill="url(#pattern_L1_10)"/></g><g fi:class="KUsePattern"><pattern id="pattern_L1_11" width="350" height="350" patternUnits="userSpaceOnUse"><use xlink:href="#L1_11" x="-350" y="-350"/><use xlink:href="#L1_11" x="0" y="-350"/><use xlink:href="#L1_11" x="350" y="-350"/><use xlink:href="#L1_11" x="-350" y="0"/><use xlink:href="#L1_11" x="0" y="0"/><use xlink:href="#L1_11" x="350" y="0"/><use xlink:href="#L1_11" x="-350" y="350"/><use xlink:href="#L1_11" x="0" y="350"/><use xlink:href="#L1_11" x="350" y="350"/></pattern><rect x="0" y="0" width="100%" height="100%" fill="url(#pattern_L1_11)"/></g><g fi:class="KUsePattern"><pattern id="pattern_L1_12" width="350" height="350" patternUnits="userSpaceOnUse"><use xlink:href="#L1_12" x="-350" y="-350"/><use xlink:href="#L1_12" x="0" y="-350"/><use xlink:href="#L1_12" x="350" y="-350"/><use xlink:href="#L1_12" x="-350" y="0"/><use xlink:href="#L1_12" x="0" y="0"/><use xlink:href="#L1_12" x="350" y="0"/><use xlink:href="#L1_12" x="-350" y="350"/><use xlink:href="#L1_12" x="0" y="350"/><use xlink:href="#L1_12" x="350" y="350"/></pattern><rect x="0" y="0" width="100%" height="100%" fill="url(#pattern_L1_12)"/></g><g fi:class="KUsePattern"><pattern id="pattern_L1_13" width="350" height="350" patternUnits="userSpaceOnUse"><use xlink:href="#L1_13" x="-350" y="-350"/><use xlink:href="#L1_13" x="0" y="-350"/><use xlink:href="#L1_13" x="350" y="-350"/><use xlink:href="#L1_13" x="-350" y="0"/><use xlink:href="#L1_13" x="0" y="0"/><use xlink:href="#L1_13" x="350" y="0"/><use xlink:href="#L1_13" x="-350" y="350"/><use xlink:href="#L1_13" x="0" y="350"/><use xlink:href="#L1_13" x="350" y="350"/></pattern><rect x="0" y="0" width="100%" height="100%" fill="url(#pattern_L1_13)"/></g></svg>