<svg xmlns="http://www.w3.org/2000/svg" xmlns:xlink="http://www.w3.org/1999/xlink" xmlns:fi="http://pattern.flaticon.com/" x="0" y="0" width="1400" height="700" viewBox="0 0 1400 700"><rect x="0px" y="0px" width="100%" height="100%" opacity="1" fill="#ffffff"/><defs><g transform="matrix(0.12958963215351105 0 0 0.12958963215351105 96 23.99999950960955)" id="L1_1"><path d="m455.5,344.001h-24c-9.253,0-30.236-8.188-54.533-17.668-10.477-4.088-21.934-8.557-33.967-12.955v-123.611c9.29-3.138 16-11.93 16-22.266v-5.449c12.534,4.178 24.725,14.078 25.001,37.537 0.048,4.112 3.396,7.412 7.497,7.412 0.03,0 0.061,0 0.09,0 4.143-0.049 7.46-3.446 7.411-7.588-0.33-28.087-14.34-46.247-39.999-52.737v-1.003c9.335-3.739 19.634-5.362 30.024-4.55 17.777,1.388 33.64,9.598 44.663,23.118 1.482,1.818 3.641,2.761 5.817,2.76 1.666,0 3.343-0.552 4.734-1.688 3.211-2.618 3.691-7.342 1.073-10.552-13.64-16.728-33.216-26.882-55.12-28.593-14.706-1.146-29.278,1.699-42.083,7.949 3.525-6.236 8.681-12.107 14.919-16.619 8.3-6.002 25.85-14.877 50.123-6.875 3.937,1.297 8.175-0.841 9.472-4.775s-0.841-8.174-4.774-9.471c-22.687-7.479-45.276-4.293-63.611,8.967-0.762,0.551-1.506,1.121-2.242,1.701 6.054-10.502 14.807-17.857 25.18-20.235 4.037-0.925 6.56-4.948 5.635-8.986s-4.942-6.559-8.986-5.635c-16.784,3.846-30.415,16.651-38.324,34.396-7.909-17.745-21.54-30.55-38.324-34.396-4.043-0.928-8.062,1.598-8.986,5.635s1.598,8.061 5.635,8.986c10.373,2.377 19.126,9.733 25.18,20.235-0.735-0.58-1.48-1.151-2.242-1.701-18.335-13.261-40.925-16.445-63.611-8.967-3.934,1.297-6.071,5.538-4.774,9.471 1.298,3.934 5.535,6.072 9.472,4.775 24.271-8.002 41.823,0.871 50.123,6.875 6.237,4.511 11.393,10.382 14.918,16.617-12.806-6.251-27.378-9.097-42.082-7.947-21.904,1.71-41.48,11.865-55.12,28.593-2.618,3.21-2.138,7.935 1.073,10.552 1.392,1.135 3.068,1.688 4.734,1.688 2.177,0 4.335-0.942 5.817-2.76 11.023-13.52 26.886-21.73 44.663-23.118 10.392-0.812 20.69,0.811 30.024,4.55v1.003c-25.659,6.489-39.669,24.65-39.999,52.737-0.049,4.142 3.269,7.539 7.411,7.588 0.029,0 0.06,0 0.09,0 4.101,0 7.449-3.3 7.497-7.412 0.094-8.028 0.347-29.17 25.001-37.319v5.23c0,10.336 6.71,19.128 16,22.266v118.295c-31.7-10.866-66.079-20.061-96.5-20.061s-64.8,9.195-96.5,20.061v-150.294c9.29-3.138 16-11.93 16-22.266v-5.449c12.534,4.178 24.725,14.078 25.001,37.537 0.048,4.112 3.396,7.412 7.497,7.412 0.03,0 0.061,0 0.09,0 4.143-0.049 7.46-3.446 7.411-7.588-0.33-28.087-14.34-46.247-39.999-52.737v-1.003c9.335-3.739 19.633-5.362 30.024-4.55 17.777,1.388 33.64,9.598 44.663,23.118 1.482,1.818 3.641,2.761 5.817,2.76 1.666,0 3.343-0.552 4.734-1.688 3.211-2.618 3.691-7.342 1.073-10.552-13.64-16.728-33.216-26.882-55.12-28.593-14.706-1.146-29.278,1.699-42.083,7.949 3.525-6.236 8.681-12.107 14.919-16.619 8.3-6.002 25.85-14.877 50.123-6.875 3.937,1.296 8.175-0.841 9.472-4.775 1.297-3.934-0.841-8.174-4.774-9.471-22.687-7.479-45.277-4.293-63.611,8.967-0.762,0.551-1.506,1.121-2.242,1.701 6.054-10.502 14.807-17.857 25.18-20.235 4.037-0.925 6.56-4.948 5.635-8.986s-4.942-6.558-8.986-5.635c-16.784,3.846-30.415,16.651-38.324,34.396-7.909-17.745-21.54-30.55-38.324-34.396-4.045-0.926-8.062,1.598-8.986,5.635-0.925,4.038 1.598,8.061 5.635,8.986 11.883,2.723 21.647,11.972 27.653,25.011-1.604-1.369-3.278-2.694-5.028-3.959-21.118-15.274-47.104-19.46-71.298-11.485-3.934,1.297-6.071,5.538-4.774,9.471 1.297,3.935 5.534,6.071 9.472,4.775 19.567-6.451 40.638-3.027 57.81,9.393 5.407,3.911 9.977,8.476 13.407,13.229-12.357-5.646-26.248-8.173-40.258-7.077-21.904,1.71-41.48,11.865-55.12,28.593-2.618,3.21-2.138,7.935 1.073,10.552 1.392,1.135 3.068,1.688 4.734,1.688 2.177,0 4.335-0.942 5.817-2.76 11.023-13.52 26.886-21.73 44.663-23.118 10.392-0.811 20.69,0.811 30.024,4.55v1.003c-25.659,6.489-39.669,24.65-39.999,52.737-0.049,4.142 3.269,7.539 7.411,7.588 0.029,0 0.06,0 0.09,0 4.101,0 7.449-3.3 7.497-7.412 0.094-8.028 0.347-29.17 25.001-37.319v5.23c0,10.336 6.71,19.128 16,22.266v155.611c-12.032,4.398-23.49,8.867-33.967,12.955-24.297,9.48-45.28,17.668-54.533,17.668h-24c-4.143,0-7.5,3.358-7.5,7.5s3.357,7.5 7.5,7.5h448c4.143,0 7.5-3.358 7.5-7.5s-3.357-7.499-7.5-7.499zm-128.5-184.65c2.653-0.229 5.482-0.35 8.5-0.35 2.154,0 5.108,0.001 8.5,0.243v8.257c0,4.687-3.813,8.5-8.5,8.5s-8.5-3.813-8.5-8.5v-8.15zm-208-32c2.653-0.229 5.482-0.35 8.5-0.35 2.154,0 5.108,0.001 8.5,0.243v8.257c0,4.687-3.813,8.5-8.5,8.5s-8.5-3.813-8.5-8.5v-8.15zm-37.004,216.65c3.059-1.186 6.216-2.417 9.489-3.694 40.349-15.744 95.609-37.306 140.015-37.306s99.666,21.562 140.015,37.306c3.273,1.277 6.43,2.508 9.489,3.694h-299.008z"/><path d="m311.5,376.001h-144c-4.143,0-7.5,3.358-7.5,7.5s3.357,7.5 7.5,7.5h144c4.143,0 7.5-3.358 7.5-7.5s-3.357-7.5-7.5-7.5z"/><path d="m135.5,376.001h-64c-4.143,0-7.5,3.358-7.5,7.5s3.357,7.5 7.5,7.5h64c4.143,0 7.5-3.358 7.5-7.5s-3.357-7.5-7.5-7.5z"/><path d="m359.5,376.001h-16c-4.143,0-7.5,3.358-7.5,7.5s3.357,7.5 7.5,7.5h16c4.143,0 7.5-3.358 7.5-7.5s-3.357-7.5-7.5-7.5z"/><path d="m295.5,408.001h-79.998c-4.143,0-7.5,3.358-7.5,7.5s3.357,7.5 7.5,7.5h79.998c4.143,0 7.5-3.358 7.5-7.5s-3.357-7.5-7.5-7.5z"/><path d="m183.501,408.001h-16.001c-4.143,0-7.5,3.358-7.5,7.5s3.357,7.5 7.5,7.5h16.001c4.143,0 7.5-3.358 7.5-7.5s-3.357-7.5-7.5-7.5z"/></g><g transform="matrix(0.04555165767669678 0 0 0.04555165767669678 33.338775634765625 145.22842007875443)" id="L1_3"><path d="m0 120v30h62.507812c1.949219 9.5625 5.730469 18.460938 10.949219 26.328125l-43.523437 43.523437 21.214844 21.214844 43.523437-43.523437c7.867187 5.21875 16.765625 9 26.328125 10.949219v61.507812h30v-61.507812c9.5625-1.949219 18.460938-5.730469 26.328125-10.949219l43.523437 43.523437 21.214844-21.214844-43.523437-43.523437c5.21875-7.867187 9-16.765625 10.949219-26.328125h61.507812v-30h-61.507812c-1.949219-9.5625-5.730469-18.460938-10.949219-26.328125l43.523437-43.523437-21.214844-21.214844-43.523437 43.523437c-7.867187-5.21875-16.765625-9-26.328125-10.945312v-61.511719h-30v61.507812c-9.5625 1.949219-18.460938 5.730469-26.328125 10.949219l-43.523437-43.523437-21.214844 21.214844 43.523437 43.523437c-5.21875 7.867187-9 16.765625-10.949219 26.328125zm136-30c24.8125 0 45 20.1875 45 45s-20.1875 45-45 45-45-20.1875-45-45 20.1875-45 45-45zm0 0"/><path d="m271 361h30v30h-30zm0 0"/><path d="m512 481c0-9.964844 0-97.226562 0-107.917969-4.601562-2.789062-42.347656-42.082031-106-42.082031-17.066406 0-33.585938 2.832031-49.253906 8.414062-26.746094-21.980468-58.664063-38.414062-100.746094-38.414062-70.992188 0-113.058594 46.769531-150.175781 88.03125-29.90625 33.25-55.738281 61.96875-90.824219 61.96875h-15v30zm-30-93.484375v61.664063c-27.8125-6.789063-50.339844-31.8125-75.824219-60.148438-7.644531-8.492188-15.496093-17.222656-23.765625-25.726562 7.609375-1.539063 15.4375-2.304688 23.589844-2.304688 27.277344 0 52.207031 8.6875 76 26.515625zm-395.03125 63.484375c14.59375-12.382812 27.972656-27.242188 41.160156-41.90625 34.535156-38.394531 70.246094-78.09375 127.871094-78.09375s93.335938 39.699219 127.871094 78.09375c13.1875 14.664062 26.566406 29.523438 41.160156 41.90625-17.550781 0-325.414062 0-338.0625 0zm0 0"/><path d="m211 391h30v30h-30zm0 0"/></g><path d="M13.396,12.382c-0.543,0.336-1.108,0.445-1.688,0.361c-0.578-0.08-1.167-0.313-1.74-0.602   c-0.287-0.148-0.573-0.303-0.854-0.477c-0.29-0.168-0.543-0.338-0.868-0.545C8.117,11.043,7.983,10.971,7.85,10.9   c-0.055-0.594-0.133-1.535-0.124-2.041c0.012-0.582,0.052-1.167,0.131-1.746c0.079-0.578,0.198-1.153,0.38-1.711   C8.318,5.16,8.413,4.922,8.521,4.69C8.57,4.678,8.616,4.668,8.663,4.657C8.676,4.66,8.685,4.661,8.698,4.664   C8.694,4.659,8.69,4.656,8.687,4.651c0.03-0.006,0.061-0.014,0.09-0.021c0.111,0.076,0.214,0.152,0.297,0.237   C9.2,4.992,9.284,5.13,9.334,5.285C9.385,5.439,9.401,5.614,9.4,5.802C9.401,5.99,9.38,6.187,9.377,6.404   c0.15-0.156,0.256-0.346,0.318-0.556c0.06-0.209,0.074-0.45-0.001-0.68c-0.072-0.23-0.243-0.431-0.445-0.54   c-0.043-0.023-0.088-0.042-0.133-0.06c0.218-0.034,0.428-0.053,0.629-0.052c0.392,0,0.738,0.083,1.057,0.246   c0.319,0.163,0.618,0.409,0.909,0.702c0.294,0.293,0.57,0.631,0.901,0.974c-0.011-0.476-0.141-0.935-0.372-1.361   c-0.232-0.421-0.584-0.817-1.061-1.059c-0.473-0.247-1.05-0.293-1.535-0.149C9.238,3.988,8.885,4.214,8.623,4.516   c-0.006,0-0.012,0-0.017,0.001c0.003,0.002,0.006,0.004,0.01,0.006C8.61,4.53,8.605,4.537,8.599,4.543   C8.597,4.541,8.595,4.538,8.593,4.536C8.608,4.507,8.625,4.478,8.641,4.45c0.321-0.319,0.633-0.587,0.957-0.78   c0.335-0.202,0.675-0.31,1.031-0.335c0.357-0.025,0.74,0.03,1.142,0.131c0.402,0.099,0.814,0.246,1.275,0.367   c-0.256-0.402-0.604-0.728-1.022-0.973c-0.417-0.24-0.923-0.397-1.455-0.357c-0.532,0.033-1.05,0.292-1.392,0.666   C9.069,3.288,8.975,3.417,8.894,3.551c0.008-0.08,0.019-0.16,0.018-0.242C8.91,2.803,8.697,2.263,8.325,1.883   c-0.369-0.386-0.851-0.608-1.32-0.709C6.53,1.076,6.054,1.085,5.594,1.212C6.018,1.43,6.422,1.597,6.787,1.794   c0.365,0.193,0.688,0.408,0.936,0.667c0.249,0.258,0.428,0.565,0.542,0.94C8.357,3.7,8.409,4.032,8.437,4.395   C8.363,4.026,8.18,3.676,7.915,3.379C7.577,3.002,7.061,2.738,6.53,2.7C5.997,2.657,5.49,2.809,5.071,3.046   C4.651,3.287,4.3,3.609,4.04,4.009c0.462-0.118,0.875-0.261,1.279-0.356c0.401-0.098,0.785-0.15,1.143-0.121   C6.818,3.56,7.156,3.671,7.49,3.876C7.664,3.982,7.834,4.11,8.003,4.254C7.824,4.235,7.634,4.267,7.47,4.353   C7.254,4.462,7.094,4.642,6.99,4.834C6.885,5.026,6.826,5.235,6.821,5.451C6.97,5.295,7.096,5.142,7.23,5.009   c0.132-0.133,0.268-0.245,0.412-0.318c0.145-0.074,0.302-0.112,0.479-0.112c0.072,0,0.148,0.008,0.226,0.018   C8.193,4.809,8.049,5.031,7.92,5.26C7.619,5.796,7.381,6.366,7.181,6.949C6.982,7.532,6.822,8.128,6.69,8.732   c-0.086,0.406-0.121,1.049-0.154,1.623c-0.124-0.037-0.248-0.076-0.374-0.107c-0.737-0.178-1.503-0.232-2.248-0.16   s-1.466,0.266-2.13,0.563C1.125,10.956,0.5,11.331,0,11.84c1.318-0.494,2.659-0.729,3.943-0.662   c1.286,0.064,2.498,0.467,3.582,1.129c0.263,0.162,0.589,0.371,0.903,0.547c0.319,0.174,0.646,0.34,0.989,0.484   c0.684,0.281,1.433,0.51,2.244,0.496c0.403-0.008,0.817-0.088,1.193-0.25c0.377-0.16,0.707-0.402,0.973-0.676   c0.526-0.559,0.853-1.195,1.115-1.852C14.427,11.544,13.946,12.058,13.396,12.382z" transform="matrix(4.01552677154541 0 0 4.01552677154541 201 253.0000004289045)" fill="#030104" id="L1_4"/><g transform="matrix(0.08789049088954926 0 0 0.08789049088954926 98.0000000219726 115.99999996704105)" id="L1_5"><path d="m227.636719 474.484375h44.140625v33.105469h-44.140625zm0 0"/><path d="m227.636719 419.316406h44.140625v33.101563h-44.140625zm0 0"/><path d="m227.636719 529.65625h44.140625v33.105469h-44.140625zm0 0"/><path d="m227.636719 364.144531h44.140625v33.101563h-44.140625zm0 0"/><path d="m271.777344 334.691406-4.359375-5.085937c-6.71875-1.757813-12.839844-5.296875-17.710938-10.238281-4.859375 4.9375-10.957031 8.472656-17.65625 10.230468l-4.414062 5.105469v7.371094h44.140625zm0 0"/><path d="m205.566406 292.417969c.351563 8.636719 7.289063 15.550781 15.933594 15.871093 8.636719.316407 16.0625-6.066406 17.050781-14.65625l-.089843-1.15625v-.058593c-.113282-1.683594-.210938-3.03125-.394532-4.179688-2.207031-7.929687-9.898437-13.03125-18.0625-11.980469-8.15625 1.046876-14.308594 7.933594-14.4375 16.160157zm0 0"/><path d="m360.734375 205.359375c-25.019531 1.703125-48.875 11.179687-68.234375 27.113281 2.09375 7.953125 1.730469 16.363282-1.042969 24.105469 2.433594.949219 4.761719 2.148437 6.945313 3.582031 30.917968-2.511718 61.601562 7.078125 85.589844 26.742188h98.207031c3.378906-.054688 6.535156-1.6875 8.527343-4.410156 2.429688-3.183594 3.21875-7.320313 2.128907-11.167969-11.707031-42.042969-53.734375-67.15625-112.394531-67.15625-6.597657-.078125-13.1875.324219-19.726563 1.191406zm0 0"/><path d="m294.207031 326.96875 113.5 132.730469c2.292969 2.691406 5.742188 4.121093 9.265625 3.839843 3.332032-.171874 6.378906-1.914062 8.210938-4.699218 22.566406-34.679688 13.242187-82.050782-24.957032-126.6875-7.933593-9.367188-16.8125-17.898438-26.484374-25.453125-16.859376-14.207031-37.640626-22.953125-59.582032-25.070313 5.644532 17.988282-2.902344 37.371094-19.988281 45.339844zm0 0"/><path d="m249.363281 264.835938c.40625 0 .695313-.078126 1.105469-.101563 4.851562-4.691406 10.859375-8.023437 17.410156-9.664063 4.558594-6.703124 5.058594-15.367187 1.316406-22.546874-3.75-7.183594-11.144531-11.730469-19.246093-11.828126-5.898438-.0625-11.570313 2.230469-15.765625 6.378907-4.1875 4.144531-6.546875 9.796875-6.546875 15.691406.023437 4.414063 1.394531 8.722656 3.929687 12.339844 6.585938 1.644531 12.621094 5.003906 17.5 9.730469zm0 0"/><path d="m293.839844 292.417969c0 9.144531-7.40625 16.554687-16.546875 16.554687-9.144531 0-16.550781-7.410156-16.550781-16.554687 0-9.140625 7.40625-16.546875 16.550781-16.546875 9.140625 0 16.546875 7.40625 16.546875 16.546875zm0 0"/><path d="m150.144531 184.128906c24.988281 2.699219 48.820313 11.933594 69.109375 26.773438 5.832032-5.566406 13.085938-9.417969 20.960938-11.148438.078125-.496094.113281-.945312.191406-1.445312-5.3125-23.25-15.839844-44.996094-30.785156-63.578125-35.953125-46.445313-80.429688-65.203125-118.972656-50.140625-3.113282 1.226562-5.457032 3.863281-6.316407 7.09375-.964843 3.410156-.246093 7.074218 1.933594 9.863281zm0 0"/><path d="m125.75 306.632812c-9.714844 7.574219-18.621094 16.121094-26.582031 25.511719-38.183594 44.613281-47.453125 91.980469-24.925781 126.683594 1.835937 2.773437 4.875 4.503906 8.195312 4.679687 3.53125.25 6.980469-1.179687 9.289062-3.859374l113.480469-132.679688c-13.238281-6.429688-21.65625-19.832031-21.707031-34.550781.050781-3.65625.632812-7.292969 1.71875-10.789063-21.898438 2.113282-42.640625 10.832032-59.46875 25.003906zm0 0"/><path d="m21.078125 286.902344h94.328125c23.996094-19.667969 54.683594-29.261719 85.605469-26.757813 2.1875-1.421875 4.511719-2.617187 6.941406-3.566406-3.054687-8.640625-3.175781-18.046875-.355469-26.765625-18.769531-14.21875-41.257812-22.691406-64.75-24.398438-.589844-.0625-1.175781-.175781-1.753906-.328124-6.066406-.664063-12.175781-.976563-18.285156-.9375-58.644532 0-100.675782 25.113281-112.40625 67.175781-1.058594 3.859375-.242188 7.988281 2.207031 11.152343 1.980469 2.71875 5.109375 4.355469 8.46875 4.425782zm0 0"/><path d="m262.425781 199.734375c0 .273437 0 .492187-.097656.773437 7.441406 2.257813 14.152344 6.445313 19.453125 12.136719 20.699219-15.859375 45.367188-25.703125 71.292969-28.460937l63.898437-82.65625c2.175782-2.761719 2.902344-6.402344 1.953125-9.789063-.859375-3.273437-3.214843-5.9375-6.355469-7.191406-32.097656-12.570313-68.324218-1.558594-100.320312 29.394531l-.070312.078125c-6.667969 6.464844-12.871094 13.402344-18.546876 20.753907-15.351562 18.90625-26.046874 41.15625-31.207031 64.960937zm0 0"/><path d="m251.582031 161.894531c6.578125-14.464843 14.832031-28.105469 24.609375-40.640625 5.46875-7.074218 11.367188-13.8125 17.648438-20.179687.019531-6.144531-.292969-12.285157-.9375-18.394531-.140625-.527344-.242188-1.0625-.296875-1.609376-1.699219-29.941406-14.769531-58.105468-36.542969-78.730468-3.644531-3.121094-9.011719-3.121094-12.660156 0-21.78125 20.621094-34.855469 48.785156-36.550782 78.730468-.058593.550782-.15625 1.097657-.296874 1.628907-.507813 4.484375-.753907 9.4375-.851563 14.730469 7.714844 7.410156 14.871094 15.367187 21.414063 23.824218 9.714843 12.550782 17.921874 26.1875 24.464843 40.640625zm0 0"/><path d="m439.132812 617.929688h-167.355468v-33.097657h-44.140625v33.097657h-220.683594c-6.09375 0-11.035156 4.941406-11.035156 11.035156s4.941406 11.035156 11.035156 11.035156h432.179687c6.09375 0 11.035157-4.941406 11.035157-11.035156s-4.941407-11.035156-11.035157-11.035156zm0 0"/><path d="m492.460938 617.929688h-11.035157c-6.09375 0-11.035156 4.941406-11.035156 11.035156s4.941406 11.035156 11.035156 11.035156h11.035157c6.09375 0 11.035156-4.941406 11.035156-11.035156s-4.941406-11.035156-11.035156-11.035156zm0 0"/></g><path d="M114.843,175.935H99.176c-0.79,0-1.534-0.374-2.006-1.008s-0.616-1.453-0.389-2.21c0.049-0.163,1.229-4.014,4.352-6.94  c1.198-1.123,2.238-1.869,3.091-2.363c-0.251-2.016-0.324-4.656,0.642-6.265l0.506-0.843l-2.926-14.922  c-1.398-0.988-3.358-3.127-4.523-7.661c-1.279-4.975-5.26-21.36-6.38-25.979c-1.545,2.922-4.021,7.864-4.96,11.201  c-0.599,2.13-0.927,4.289-1.243,6.378c-0.453,2.986-0.922,6.075-2.175,9.207c-1.056,2.639-2.406,5.122-3.837,7.751  c-1.429,2.626-2.906,5.342-4.362,8.659c-1.971,4.488-2.825,6.965-3.159,8.042c0.453,1.324,1.097,3.843,0.441,6.139  c-0.602,2.104-1.077,3.322-1.229,3.69l-1.804,5.414c-0.341,1.021-1.296,1.71-2.372,1.71h-15c-0.784,0-1.523-0.368-1.996-0.994  c-0.472-0.627-0.623-1.438-0.408-2.192c0.273-0.956,1.812-5.813,5.286-7.55c1.043-0.521,1.976-0.907,2.752-1.189  c-0.109-1.148-0.097-2.555,0.296-3.929c0.644-2.251,2.222-3.563,3.349-4.24l5.229-15.991c0.034-1.346,0.249-5.728,1.572-10.87  c1.291-5.022,3.603-8.78,4.527-10.15c0.253-1.83,1.032-7.525,1.578-12.028c0.19-1.571,0.48-2.94,0.81-4.111  c-5.843,1.039-15.693,1.197-25.463-5.898C36.6,87.514,34.206,81.728,31.89,76.133c-0.32-0.775-0.643-1.554-0.996-2.345  c-2.865-6.404-4.504-8.953-5.82-11.002c-0.693-1.078-1.377-1.554-1.692-1.731c-0.039-0.019-0.077-0.039-0.115-0.061  c-0.036-0.018-0.059-0.026-0.063-0.028l-9.121-3.145c-1.103,0.175-2.624,0.59-3.233,1.138c-1.451,1.306-3.686,1.642-5.824,0.888  c-2.604-0.921-4.436-3.201-4.899-6.102c-0.757-4.726,2.107-8.411,3.992-9.759c0.022-0.055,0.045-0.113,0.069-0.173  c0.484-1.195,1.385-3.419,3.96-4.823c2.481-1.354,6.18-1.419,10.096-1.489c1.41-0.024,2.869-0.051,4.173-0.144  c2.129-0.152,4.979-0.655,7.494-1.1c3.661-0.646,5.632-0.975,6.871-0.798c0.492,0.07,0.903,0.127,1.238,0.172  c1.369-1.29,3.699-3.117,6.021-3.089c1.196,0.022,2.278,0.535,3.046,1.442c2.239,2.647,0.482,7.08-1.046,9.89  c1.154,1.685,2.754,4.781,3.758,9.912c2.253,11.514,6.174,16.647,12.713,16.647c7.262,0,12.347-6.445,16.832-12.132  c1.143-1.448,2.222-2.816,3.3-4.029c3.308-3.721,7.041-4.883,10.335-5.909c2.486-0.773,4.633-1.442,6.201-3.131  c0.605-0.651,1.339-1.475,2.171-2.408c7.389-8.289,15.126-16.408,21.37-16.722c7.646-0.379,11.759,1.293,19.113,7.791  c4.207,3.717,10.476,8.089,16.007,11.945c3.758,2.621,7.308,5.097,9.887,7.133c4.835,3.816,8.02,6.573,10.083,12.146  c2.125,1.648,8.854,7.264,10.532,13.498c0.359,1.334-0.431,2.705-1.764,3.064c-1.332,0.355-2.705-0.431-3.064-1.764  c-0.555-2.061-2.024-4.203-3.675-6.083c0.524,3.848,0.677,7.865,0.823,11.765c0.249,6.586,0.483,12.807,2.365,17.98  c2.415,6.641,8.731,15.219,11.335,18.599c1.385,1.797,2.115,4.042,2.057,6.323c-0.115,4.5,0.252,12.548,0.88,15.79  c1.526,7.874,4.514,16.234,4.544,16.317c0.218,0.606,0.193,1.273-0.068,1.862l-4.813,10.813c-0.401,0.902-1.297,1.483-2.284,1.483  h-15.5c-1.282,0-2.356-0.97-2.487-2.245c-0.042-0.416-0.357-4.165,1.665-7.605c1.301-2.212,3.545-3.394,5.29-4.009  c-0.185-1.583-0.353-3.673-0.209-5.263c0.208-2.294,1.301-4.232,2.111-5.386l-4.967-20.672c-0.197-0.75-0.624-1.478-1.222-2.053  l-17.25-16.635c-0.028-0.027-0.056-0.055-0.082-0.083c-0.252,2.072-0.341,4.422-0.037,6.801c0.56,4.376,1.067,7.871,1.395,10.032  c0.35,2.301-0.039,4.599-1.123,6.643c-1.862,3.508-5.133,10.138-6.133,15.132c-1.334,6.67,0.313,11.647,0.33,11.696  c0.216,0.638,0.17,1.346-0.136,1.946l-5.25,10.333c-0.426,0.839-1.287,1.367-2.229,1.367h-13.667c-0.697,0-1.362-0.291-1.836-0.804  c-0.474-0.512-0.711-1.198-0.656-1.893c0.045-0.57,0.513-5.655,3.042-8.568c1.274-1.467,2.756-2.27,4.016-2.708  c-0.067-1.365,0.063-3.063,0.79-4.638c0.796-1.725,1.722-2.762,2.489-3.378l5.164-23.35c0.223-1.005,0.172-2.053-0.146-3.033  l-5.52-16.94c-0.774-2.376-0.891-4.92-0.336-7.357l0.998-4.39c-3.588,2.679-8.279,5.684-12.351,6.675  c-5.699,1.388-15.408,2.335-19.678,2.704c-0.27,3.37-0.586,10.227,0.756,14.811c1.637,5.593,4.411,16.08,4.6,23.473  c0.1,3.882,1.624,8.452,2.736,11.789c0.708,2.124,1.177,3.527,1.258,4.583c0.196,2.549-0.662,5.562-0.761,5.896  c-0.019,0.065-0.041,0.129-0.065,0.192l-2.5,6.5C116.805,175.298,115.877,175.935,114.843,175.935z M103.24,170.935h9.887  l1.844-4.794c0.208-0.746,0.649-2.684,0.547-4.014c-0.041-0.463-0.581-2.083-1.016-3.386c-1.212-3.635-2.872-8.614-2.991-13.242  c-0.181-7.081-3.138-17.882-4.4-22.196c-2.081-7.111-0.833-17.961-0.731-18.804c0.009-0.086,0.022-0.173,0.041-0.259  c0.025-0.115,0.058-0.228,0.098-0.337c0.13-0.37,1.659-4.834,1.659-8.255c0-1.151-1.854-3.312-3.207-4.89  c-2.028-2.364-4.126-4.809-4.126-7.511c0-1.381,1.119-2.5,2.5-2.5s2.5,1.119,2.5,2.5c0,0.851,1.758,2.899,2.921,4.255  c2.169,2.529,4.412,5.144,4.412,8.146c0,2.122-0.432,4.446-0.89,6.315c4.636-0.431,12.641-1.288,17.36-2.438  c5.358-1.305,13.266-7.797,15.882-10.207c0.039-0.037,0.079-0.072,0.121-0.107c0.002,0,0.002-0.002,0.006-0.004  c0.002-0.002,0.004-0.002,0.004-0.004l8.484-6.911c-0.842-3.503-1.696-6.111-2.381-7.139c-0.766-1.149-0.455-2.701,0.693-3.467  c1.151-0.766,2.701-0.455,3.467,0.693c2.152,3.229,3.879,11.91,4.717,16.797c0.901,5.256,2.807,11.874,3.07,12.778l2.259,5.722  l16.859,16.258c1.257,1.212,2.156,2.745,2.6,4.433l5.262,21.898c0.195,0.813-0.028,1.669-0.596,2.282  c-0.413,0.457-1.539,2.006-1.679,3.547c-0.163,1.805,0.289,5.131,0.477,6.261c0.111,0.666-0.053,1.35-0.453,1.894  s-1.004,0.902-1.673,0.994c-0.788,0.116-3.259,0.774-4.102,2.208c-0.448,0.761-0.701,1.582-0.843,2.315h11.23l3.75-8.424  c-0.852-2.482-3.105-9.352-4.413-16.101c-0.756-3.899-1.079-12.596-0.97-16.87c0.029-1.136-0.333-2.252-1.02-3.143  c-3.41-4.428-9.515-12.905-12.073-19.941c-2.149-5.911-2.41-12.82-2.662-19.501c-0.158-4.189-0.321-8.521-0.956-12.455  c-0.372-2.304-0.806-4.18-1.328-5.763c-0.026-0.068-0.05-0.137-0.07-0.207c-1.685-4.941-4.284-6.994-8.683-10.467  c-2.463-1.944-5.953-4.378-9.649-6.955c-5.642-3.935-12.035-8.393-16.457-12.301c-6.76-5.973-9.684-6.832-15.553-6.543  c-4.677,0.234-13.6,10.244-17.888,15.055c-0.858,0.963-1.615,1.812-2.239,2.483c-2.475,2.664-5.476,3.599-8.379,4.503  c-2.932,0.913-5.7,1.775-8.085,4.457c-0.979,1.103-2.015,2.414-3.11,3.804c-4.933,6.253-11.071,14.035-20.758,14.035  c-13.572,0-16.618-15.57-17.619-20.687c-1.277-6.525-3.554-8.788-3.576-8.811c-0.92-0.812-1.073-2.133-0.42-3.17l0,0  c1.004-1.597,1.863-3.543,2.162-4.774c-0.711,0.466-1.611,1.225-2.284,1.961c-0.539,0.59-1.322,0.89-2.121,0.798  c0,0-0.773-0.085-2.578-0.343c-0.639-0.052-3.329,0.425-5.295,0.772c-2.635,0.465-5.62,0.992-8.007,1.163  c-1.438,0.103-2.964,0.13-4.44,0.155c-2.994,0.054-6.387,0.114-7.79,0.879c-1.006,0.549-1.354,1.405-1.721,2.312  c-0.332,0.821-0.743,1.834-1.823,2.38c-0.479,0.357-2.351,2.29-1.935,4.885c0.195,1.222,0.839,1.791,1.346,2.055  c0.573,0.297,1.044,0.245,1.15,0.192c2.116-1.913,5.827-2.354,6.549-2.423c0.353-0.033,0.713,0.009,1.052,0.125l9.639,3.323  c0.125,0.041,0.328,0.115,0.587,0.237c2.507,0.661,6.967,1.276,8.987,0.243c1.905-0.974,2.962-5.185,3.152-6.957  c0.147-1.372,1.373-2.36,2.752-2.219c1.373,0.146,2.366,1.379,2.219,2.752c-0.091,0.854-1.032,8.415-5.848,10.876  c-1.739,0.889-3.934,1.136-6.015,1.086c1.313,2.181,2.759,4.879,4.826,9.501c0.373,0.834,0.713,1.655,1.052,2.474  c2.145,5.182,4.17,10.077,15.802,18.524c8.836,6.415,17.834,5.818,22.546,4.836c-2.106-4.139-1.963-9.684-1.93-10.489  c0.058-1.38,1.235-2.456,2.602-2.395c1.379,0.058,2.45,1.221,2.395,2.6c-0.097,2.492,0.411,8.085,2.59,9.525  c0.016,0.01,0.031,0.02,0.046,0.03c3.762,2.422,10.644,4.786,10.912,4.878c0.037,0.013,0.075,0.026,0.112,0.041  c0.155,0.061,0.302,0.135,0.438,0.222l2.958,1.809c0.565,0.345,0.97,0.9,1.126,1.544c0.052,0.214,5.18,21.383,6.658,27.132  c0.94,3.655,2.375,4.708,2.702,4.906c0.982,0.187,1.467,0.898,1.663,1.902l3.333,17c0.119,0.607,0.009,1.237-0.31,1.768l-1,1.667  c-0.21,0.541-0.078,2.859,0.305,4.707c0.155,0.75,0.134,1.521-0.358,2.107c-0.473,0.563-1.006,0.881-1.725,0.886  c-0.287,0.106-1.267,0.545-2.821,2.003C104.044,169.902,103.609,170.421,103.24,170.935z M55.723,170.935h9.318l1.263-3.79  c0.022-0.066,0.047-0.131,0.074-0.194c0.002-0.006,0.457-1.089,1.062-3.203c0.312-1.092-0.246-2.951-0.548-3.632  c-0.215-0.482-0.271-1.021-0.16-1.538c0.057-0.265,0.641-2.78,3.655-9.647c1.541-3.511,3.139-6.447,4.548-9.038  c1.417-2.604,2.641-4.854,3.587-7.22c1.038-2.596,1.444-5.27,1.874-8.101c0.34-2.238,0.691-4.554,1.374-6.98  c1.061-3.771,3.683-9.03,5.325-12.138c-1.928-0.742-4.556-1.828-6.894-3.048c-0.452,1.155-0.946,2.819-1.211,4.996  c-0.661,5.459-1.661,12.64-1.672,12.712c-0.058,0.419-0.222,0.815-0.476,1.154c-0.023,0.032-2.731,3.717-4.079,8.956  c-1.396,5.427-1.421,10.001-1.421,10.047c-0.001,0.262-0.042,0.524-0.124,0.774l-5.667,17.333c-0.24,0.734-0.807,1.316-1.534,1.577  v-0.001c0.003,0-1.145,0.474-1.438,1.501c-0.37,1.296-0.015,3.021,0.153,3.577c0.206,0.682,0.113,1.426-0.259,2.033  c-0.371,0.608-0.983,1.034-1.685,1.162c-0.001,0-1.567,0.312-3.827,1.442C56.534,169.885,56.109,170.358,55.723,170.935z   M138.157,169.768h9.152l4.111-8.092c-0.531-2.101-1.431-7.055-0.195-13.231c1.124-5.618,4.629-12.746,6.618-16.494  c0.577-1.089,0.784-2.317,0.597-3.551c-0.331-2.187-0.845-5.724-1.41-10.147c-0.879-6.886,0.946-13.316,1.689-15.559  c-0.59-2.069-2.175-7.816-3.007-12.671c-0.13-0.758-0.265-1.503-0.401-2.231l-5.825,4.746l-2.428,10.67  c-0.354,1.558-0.279,3.183,0.215,4.7l5.52,16.941c0.596,1.829,0.69,3.786,0.274,5.662l-5.387,24.359  c-0.176,0.791-0.722,1.444-1.459,1.759c-0.108,0.075-0.617,0.47-1.15,1.624c-0.613,1.33-0.244,3.367-0.112,3.841  c0.211,0.753,0.058,1.562-0.415,2.185s-1.21,0.989-1.992,0.989c-0.039,0.002-1.796,0.07-3.05,1.515  C138.904,167.47,138.459,168.631,138.157,169.768z M30.343,47.768h-2.334c-1.381,0-2.5-1.119-2.5-2.5s1.119-2.5,2.5-2.5h2.334  c1.381,0,2.5,1.119,2.5,2.5S31.724,47.768,30.343,47.768z" transform="matrix(0.3188170923822903 0.1115859852863447 -0.1115859852863447 0.3188170923822903 281.06309765216423 73.59043663052287)" id="L1_6"/><g transform="matrix(0.13596101105213165 0 0 0.13596101105213165 53 193)" id="L1_7"><path d="M437.396,279.747c-12.595-3.817-25.279-7.29-38.036-10.43l-3.038-13.971c-0.44-2.027-1.985-3.634-3.994-4.155l-18-4.667   c-2.405-0.621-4.941,0.448-6.168,2.618l-6.717,11.884c-4.652-0.891-9.312-1.738-13.98-2.54l-4.526-17.358   c-0.511-1.957-2.054-3.477-4.019-3.956l-23.671-5.773l-1.512-11.595c-0.374-2.871-2.911-4.962-5.8-4.778l-74,4.667   c-1.904,0.12-3.609,1.218-4.507,2.901l-3.974,7.45l-26.462,3.007c-1.741,0.198-3.284,1.214-4.154,2.736l-7.21,12.618   c-15.302,0.673-30.561,1.817-45.76,3.423l-1.853-11.404c-0.224-1.374-1.009-2.592-2.168-3.362   c-1.159-0.771-2.584-1.023-3.939-0.697l-17.391,4.191c-1.936,0.467-3.41,2.038-3.754,4l-1.958,11.206   c-15.719,2.331-31.36,5.163-46.901,8.493l-1.669-9.034l9.712-1.794c2.716-0.502,4.51-3.11,4.009-5.825l-2.635-14.266   c-0.502-2.716-3.116-4.508-5.825-4.009c-2.716,0.501-4.51,3.109-4.009,5.825l1.727,9.349l-4.795,0.886l-2.559-13.854   c-0.502-2.716-3.115-4.509-5.825-4.009c-2.716,0.502-4.51,3.11-4.009,5.825l2.559,13.854l-4.796,0.886l-1.727-9.349   c-0.502-2.716-3.113-4.508-5.825-4.009c-2.716,0.501-4.51,3.109-4.009,5.825l2.635,14.266c0.241,1.304,0.99,2.459,2.082,3.21   c0.84,0.578,1.83,0.881,2.835,0.881c0.303,0,0.606-0.027,0.908-0.083l9.714-1.794l1.734,9.387   c-16.875,3.854-33.628,8.291-50.23,13.321c-2.907,0.881-4.55,3.952-3.669,6.858c0.881,2.907,3.955,4.551,6.858,3.669   c16.209-4.912,32.566-9.249,49.04-13.022l2.299,12.444c0.445,2.409,2.547,4.093,4.911,4.093c0.302,0,0.607-0.027,0.914-0.084   c2.716-0.502,4.51-3.11,4.009-5.825l-2.365-12.803c50.748-10.899,102.578-16.403,154.748-16.403   c72.506,0,144.355,10.632,213.555,31.6c0.531,0.161,1.068,0.238,1.597,0.238c2.36,0,4.542-1.531,5.262-3.907   C441.946,283.698,440.303,280.628,437.396,279.747z M375.657,258.233l10.636,2.757l1.198,5.51   c-4.888-1.119-9.786-2.189-14.694-3.208L375.657,258.233z M335.588,256.54c-5.692-0.884-11.395-1.702-17.107-2.454l-1.588-10.964   l16.229,3.958L335.588,256.54z M122.05,249.51l8.96-2.159l0.908,5.59c-3.572,0.426-7.14,0.883-10.705,1.361L122.05,249.51z    M200.561,247.945l2.446-4.28l26.563-3.018c1.798-0.204,3.38-1.28,4.231-2.876l3.89-7.292l65.804-4.15l3.669,26.357   c-28.652-3.329-57.529-5.01-86.511-5.01C213.949,247.674,207.251,247.766,200.561,247.945z"/><path d="M220.652,146.117c22.882,0,41.498-18.616,41.498-41.498s-18.616-41.498-41.498-41.498s-41.498,18.616-41.498,41.498   S197.77,146.117,220.652,146.117z M220.652,74.121c16.816,0,30.498,13.681,30.498,30.498s-13.682,30.498-30.498,30.498   s-30.498-13.681-30.498-30.498S203.835,74.121,220.652,74.121z"/><path d="M162.657,368.182h-1.426l3.766-10.669c0.523-1.484,0.318-3.128-0.555-4.438l-5.334-8c-1.13-1.694-3.175-2.534-5.167-2.124   l-28.008,5.76l-2.804-4.273c-1.005-1.529-2.77-2.395-4.585-2.24l-24.666,2c-1.693,0.137-3.201,1.125-4.003,2.622l-11.55,21.361   h-6.043c-2.762,0-5,2.239-5,5s2.238,5,5,5h90.375c2.762,0,5-2.239,5-5S165.418,368.182,162.657,368.182z M125.616,368.182h-10.001   H89.775l7.626-14.237l18.993-1.54l10.353,15.776H125.616z M150.108,368.182h-12.193c-0.055-0.832-0.296-1.663-0.786-2.41   l-5.293-8.065l20.82-4.282l2.079,3.117L150.108,368.182z"/></g><g transform="matrix(0.13596101105213165 0 0 0.13596101105213165 191 83.9999998672256)" id="L1_8"><path d="M437.396,279.747c-12.595-3.817-25.279-7.29-38.036-10.43l-3.038-13.971c-0.44-2.027-1.985-3.634-3.994-4.155l-18-4.667   c-2.405-0.621-4.941,0.448-6.168,2.618l-6.717,11.884c-4.652-0.891-9.312-1.738-13.98-2.54l-4.526-17.358   c-0.511-1.957-2.054-3.477-4.019-3.956l-23.671-5.773l-1.512-11.595c-0.374-2.871-2.911-4.962-5.8-4.778l-74,4.667   c-1.904,0.12-3.609,1.218-4.507,2.901l-3.974,7.45l-26.462,3.007c-1.741,0.198-3.284,1.214-4.154,2.736l-7.21,12.618   c-15.302,0.673-30.561,1.817-45.76,3.423l-1.853-11.404c-0.224-1.374-1.009-2.592-2.168-3.362   c-1.159-0.771-2.584-1.023-3.939-0.697l-17.391,4.191c-1.936,0.467-3.41,2.038-3.754,4l-1.958,11.206   c-15.719,2.331-31.36,5.163-46.901,8.493l-1.669-9.034l9.712-1.794c2.716-0.502,4.51-3.11,4.009-5.825l-2.635-14.266   c-0.502-2.716-3.116-4.508-5.825-4.009c-2.716,0.501-4.51,3.109-4.009,5.825l1.727,9.349l-4.795,0.886l-2.559-13.854   c-0.502-2.716-3.115-4.509-5.825-4.009c-2.716,0.502-4.51,3.11-4.009,5.825l2.559,13.854l-4.796,0.886l-1.727-9.349   c-0.502-2.716-3.113-4.508-5.825-4.009c-2.716,0.501-4.51,3.109-4.009,5.825l2.635,14.266c0.241,1.304,0.99,2.459,2.082,3.21   c0.84,0.578,1.83,0.881,2.835,0.881c0.303,0,0.606-0.027,0.908-0.083l9.714-1.794l1.734,9.387   c-16.875,3.854-33.628,8.291-50.23,13.321c-2.907,0.881-4.55,3.952-3.669,6.858c0.881,2.907,3.955,4.551,6.858,3.669   c16.209-4.912,32.566-9.249,49.04-13.022l2.299,12.444c0.445,2.409,2.547,4.093,4.911,4.093c0.302,0,0.607-0.027,0.914-0.084   c2.716-0.502,4.51-3.11,4.009-5.825l-2.365-12.803c50.748-10.899,102.578-16.403,154.748-16.403   c72.506,0,144.355,10.632,213.555,31.6c0.531,0.161,1.068,0.238,1.597,0.238c2.36,0,4.542-1.531,5.262-3.907   C441.946,283.698,440.303,280.628,437.396,279.747z M375.657,258.233l10.636,2.757l1.198,5.51   c-4.888-1.119-9.786-2.189-14.694-3.208L375.657,258.233z M335.588,256.54c-5.692-0.884-11.395-1.702-17.107-2.454l-1.588-10.964   l16.229,3.958L335.588,256.54z M122.05,249.51l8.96-2.159l0.908,5.59c-3.572,0.426-7.14,0.883-10.705,1.361L122.05,249.51z    M200.561,247.945l2.446-4.28l26.563-3.018c1.798-0.204,3.38-1.28,4.231-2.876l3.89-7.292l65.804-4.15l3.669,26.357   c-28.652-3.329-57.529-5.01-86.511-5.01C213.949,247.674,207.251,247.766,200.561,247.945z"/><path d="M220.652,146.117c22.882,0,41.498-18.616,41.498-41.498s-18.616-41.498-41.498-41.498s-41.498,18.616-41.498,41.498   S197.77,146.117,220.652,146.117z M220.652,74.121c16.816,0,30.498,13.681,30.498,30.498s-13.682,30.498-30.498,30.498   s-30.498-13.681-30.498-30.498S203.835,74.121,220.652,74.121z"/><path d="M162.657,368.182h-1.426l3.766-10.669c0.523-1.484,0.318-3.128-0.555-4.438l-5.334-8c-1.13-1.694-3.175-2.534-5.167-2.124   l-28.008,5.76l-2.804-4.273c-1.005-1.529-2.77-2.395-4.585-2.24l-24.666,2c-1.693,0.137-3.201,1.125-4.003,2.622l-11.55,21.361   h-6.043c-2.762,0-5,2.239-5,5s2.238,5,5,5h90.375c2.762,0,5-2.239,5-5S165.418,368.182,162.657,368.182z M125.616,368.182h-10.001   H89.775l7.626-14.237l18.993-1.54l10.353,15.776H125.616z M150.108,368.182h-12.193c-0.055-0.832-0.296-1.663-0.786-2.41   l-5.293-8.065l20.82-4.282l2.079,3.117L150.108,368.182z"/></g><g transform="matrix(0.046259948120293014 0.014456234009880236 -0.014456234009880236 0.046259948120293014 289.8582637463196 207.45672714500682)" id="L1_9"><path d="M23.24,467.677H10.449C4.678,467.677,0,472.356,0,478.126c0,5.771,4.678,10.449,10.449,10.449H23.24    c5.77,0,10.449-4.678,10.449-10.449S29.011,467.677,23.24,467.677z"/><path d="M334.743,467.677h-12.792c-5.77,0-10.449,4.679-10.449,10.449c0,5.771,4.679,10.449,10.449,10.449h12.792    c5.77,0,10.449-4.678,10.449-10.449S340.514,467.677,334.743,467.677z"/><path d="M286.426,467.677h-74.588V364.61h31.932c27.897,0,50.594-22.698,50.594-50.597v-54.647    c0-20.519-16.693-37.213-37.211-37.213c-20.522,0-37.217,16.694-37.217,37.213v30.815h-8.098V137.994    c0-35.277-28.702-63.977-63.981-63.977c-35.278,0-63.977,28.7-63.977,63.977v80.652h-8.984V167.22    c0-20.649-16.8-37.449-37.451-37.449C16.798,129.772,0,146.572,0,167.221v75.373c0,28.093,22.855,50.949,50.947,50.949H83.88    v174.135H58.767c-5.77,0-10.449,4.679-10.449,10.449c0,5.771,4.679,10.449,10.449,10.449h227.659    c5.77,0,10.449-4.678,10.449-10.449S292.196,467.677,286.426,467.677z M190.94,354.163v113.516h-86.162v-0.001V283.093    c0-5.77-4.679-10.449-10.449-10.449H50.947c-16.57,0-30.049-13.481-30.049-30.051v-75.373c0-9.126,7.423-16.551,16.548-16.551    c9.127,0,16.553,7.424,16.553,16.551v61.875c0,5.77,4.679,10.449,10.449,10.449h29.882c5.77,0,10.449-4.679,10.449-10.449v-91.101    c0-23.753,19.325-43.08,43.08-43.08c23.755,0,43.083,19.325,43.083,43.08v162.637c0,5.77,4.678,10.449,10.449,10.449h28.996    c5.77,0,10.449-4.679,10.449-10.449v-41.264c0-8.995,7.32-16.315,16.319-16.315c8.994,0,16.313,7.319,16.313,16.315v54.647    c0,16.377-13.322,29.699-29.697,29.699h-42.381C195.617,343.714,190.94,348.393,190.94,354.163z"/><path d="M478.636,417.83c18.394,0,33.359-14.965,33.359-33.36v-31.186c0-14.182-11.539-25.721-25.721-25.721    c-8.897,0-16.753,4.54-21.374,11.424V284.02c0-22.606-18.392-40.996-40.998-40.996s-40.996,18.391-40.996,40.996v77.39    c-4.559-7.376-12.721-12.301-22.012-12.301c-14.258,0-25.856,11.599-25.856,25.857v23.715c0,18.505,15.055,33.56,33.56,33.56    h14.308v35.436H370.27c-5.771,0-10.449,4.679-10.449,10.449c0,5.771,4.678,10.449,10.449,10.449h131.275    c5.77,0,10.449-4.678,10.449-10.449c0-5.77-4.679-10.449-10.449-10.449H464.9V417.83H478.636z M454.451,396.933    c-5.77,0-10.449,4.679-10.449,10.449v60.295h-40.2v-45.885c0-5.77-4.679-10.449-10.449-10.449h-24.757    c-6.982,0-12.662-5.68-12.662-12.662v-23.715c0-2.734,2.225-4.959,4.958-4.959c2.734,0,4.959,2.225,4.959,4.959v16.011    c0,5.77,4.679,10.449,10.449,10.449h17.053c5.77,0,10.449-4.679,10.449-10.449V284.02c0-11.082,9.016-20.098,20.098-20.098    c11.084,0,20.101,9.016,20.101,20.098v92.813c0,5.77,4.679,10.449,10.449,10.449h16.548c5.771,0,10.449-4.679,10.449-10.449    v-23.549c0-2.66,2.165-4.824,4.826-4.824c2.659,0,4.823,2.164,4.823,4.824v31.186h0.001c0,6.871-5.59,12.462-12.461,12.462    H454.451z"/><path d="M139.263,294.75c-5.771,0-10.449,4.679-10.449,10.449v135.924c0,5.77,4.679,10.449,10.449,10.449    c5.77,0,10.449-4.679,10.449-10.449V305.199C149.711,299.428,145.034,294.75,139.263,294.75z"/><path d="M139.263,245.418c-5.771,0-10.449,4.679-10.449,10.449v13.806c0,5.77,4.679,10.449,10.449,10.449    c5.77,0,10.449-4.679,10.449-10.449v-13.806C149.711,250.097,145.034,245.418,139.263,245.418z"/><path d="M454.647,105.816c-11.423-22.089-34.435-36.546-59.55-36.836c-8.626-26.878-33.635-45.554-62.631-45.554    c-36.297,0-65.828,29.531-65.828,65.828c0,17.245,6.586,33.358,18.313,45.533c-5.271,8.874-8.304,19.242-8.304,30.308    c0,5.77,4.679,10.449,10.449,10.449h214.455c5.77,0,10.449-4.679,10.449-10.449C512,132.949,486.421,106.697,454.647,105.816z     M287.536,89.253c0-24.774,20.156-44.93,44.93-44.93c18.592,0,34.782,11.243,41.556,27.805    c-17.072,5.426-31.656,17.509-40.021,33.686c-13.333,0.37-25.563,5.218-35.282,13.083    C291.542,110.773,287.536,100.356,287.536,89.253z M298.979,154.646c4.526-16.115,19.253-27.955,36.673-27.955    c1.256,0,2.586,0.069,3.95,0.207c4.721,0.473,9.135-2.265,10.816-6.682c6.905-18.156,24.551-30.354,43.907-30.354    c19.355,0,37,12.199,43.906,30.355c1.68,4.416,6.108,7.154,10.815,6.681c1.367-0.138,2.696-0.207,3.954-0.207    c17.418,0,32.144,11.84,36.67,27.955H298.979z"/></g><g transform="matrix(0.07511669461861674 -0.010015559581698877 0.010015559581698877 0.07511669461861674 294.206132869689 29.33414901435634)" id="L1_10"><path d="M23.24,467.677H10.449C4.678,467.677,0,472.356,0,478.126c0,5.771,4.678,10.449,10.449,10.449H23.24    c5.77,0,10.449-4.678,10.449-10.449S29.011,467.677,23.24,467.677z"/><path d="M334.743,467.677h-12.792c-5.77,0-10.449,4.679-10.449,10.449c0,5.771,4.679,10.449,10.449,10.449h12.792    c5.77,0,10.449-4.678,10.449-10.449S340.514,467.677,334.743,467.677z"/><path d="M286.426,467.677h-74.588V364.61h31.932c27.897,0,50.594-22.698,50.594-50.597v-54.647    c0-20.519-16.693-37.213-37.211-37.213c-20.522,0-37.217,16.694-37.217,37.213v30.815h-8.098V137.994    c0-35.277-28.702-63.977-63.981-63.977c-35.278,0-63.977,28.7-63.977,63.977v80.652h-8.984V167.22    c0-20.649-16.8-37.449-37.451-37.449C16.798,129.772,0,146.572,0,167.221v75.373c0,28.093,22.855,50.949,50.947,50.949H83.88    v174.135H58.767c-5.77,0-10.449,4.679-10.449,10.449c0,5.771,4.679,10.449,10.449,10.449h227.659    c5.77,0,10.449-4.678,10.449-10.449S292.196,467.677,286.426,467.677z M190.94,354.163v113.516h-86.162v-0.001V283.093    c0-5.77-4.679-10.449-10.449-10.449H50.947c-16.57,0-30.049-13.481-30.049-30.051v-75.373c0-9.126,7.423-16.551,16.548-16.551    c9.127,0,16.553,7.424,16.553,16.551v61.875c0,5.77,4.679,10.449,10.449,10.449h29.882c5.77,0,10.449-4.679,10.449-10.449v-91.101    c0-23.753,19.325-43.08,43.08-43.08c23.755,0,43.083,19.325,43.083,43.08v162.637c0,5.77,4.678,10.449,10.449,10.449h28.996    c5.77,0,10.449-4.679,10.449-10.449v-41.264c0-8.995,7.32-16.315,16.319-16.315c8.994,0,16.313,7.319,16.313,16.315v54.647    c0,16.377-13.322,29.699-29.697,29.699h-42.381C195.617,343.714,190.94,348.393,190.94,354.163z"/><path d="M478.636,417.83c18.394,0,33.359-14.965,33.359-33.36v-31.186c0-14.182-11.539-25.721-25.721-25.721    c-8.897,0-16.753,4.54-21.374,11.424V284.02c0-22.606-18.392-40.996-40.998-40.996s-40.996,18.391-40.996,40.996v77.39    c-4.559-7.376-12.721-12.301-22.012-12.301c-14.258,0-25.856,11.599-25.856,25.857v23.715c0,18.505,15.055,33.56,33.56,33.56    h14.308v35.436H370.27c-5.771,0-10.449,4.679-10.449,10.449c0,5.771,4.678,10.449,10.449,10.449h131.275    c5.77,0,10.449-4.678,10.449-10.449c0-5.77-4.679-10.449-10.449-10.449H464.9V417.83H478.636z M454.451,396.933    c-5.77,0-10.449,4.679-10.449,10.449v60.295h-40.2v-45.885c0-5.77-4.679-10.449-10.449-10.449h-24.757    c-6.982,0-12.662-5.68-12.662-12.662v-23.715c0-2.734,2.225-4.959,4.958-4.959c2.734,0,4.959,2.225,4.959,4.959v16.011    c0,5.77,4.679,10.449,10.449,10.449h17.053c5.77,0,10.449-4.679,10.449-10.449V284.02c0-11.082,9.016-20.098,20.098-20.098    c11.084,0,20.101,9.016,20.101,20.098v92.813c0,5.77,4.679,10.449,10.449,10.449h16.548c5.771,0,10.449-4.679,10.449-10.449    v-23.549c0-2.66,2.165-4.824,4.826-4.824c2.659,0,4.823,2.164,4.823,4.824v31.186h0.001c0,6.871-5.59,12.462-12.461,12.462    H454.451z"/><path d="M139.263,294.75c-5.771,0-10.449,4.679-10.449,10.449v135.924c0,5.77,4.679,10.449,10.449,10.449    c5.77,0,10.449-4.679,10.449-10.449V305.199C149.711,299.428,145.034,294.75,139.263,294.75z"/><path d="M139.263,245.418c-5.771,0-10.449,4.679-10.449,10.449v13.806c0,5.77,4.679,10.449,10.449,10.449    c5.77,0,10.449-4.679,10.449-10.449v-13.806C149.711,250.097,145.034,245.418,139.263,245.418z"/><path d="M454.647,105.816c-11.423-22.089-34.435-36.546-59.55-36.836c-8.626-26.878-33.635-45.554-62.631-45.554    c-36.297,0-65.828,29.531-65.828,65.828c0,17.245,6.586,33.358,18.313,45.533c-5.271,8.874-8.304,19.242-8.304,30.308    c0,5.77,4.679,10.449,10.449,10.449h214.455c5.77,0,10.449-4.679,10.449-10.449C512,132.949,486.421,106.697,454.647,105.816z     M287.536,89.253c0-24.774,20.156-44.93,44.93-44.93c18.592,0,34.782,11.243,41.556,27.805    c-17.072,5.426-31.656,17.509-40.021,33.686c-13.333,0.37-25.563,5.218-35.282,13.083    C291.542,110.773,287.536,100.356,287.536,89.253z M298.979,154.646c4.526-16.115,19.253-27.955,36.673-27.955    c1.256,0,2.586,0.069,3.95,0.207c4.721,0.473,9.135-2.265,10.816-6.682c6.905-18.156,24.551-30.354,43.907-30.354    c19.355,0,37,12.199,43.906,30.355c1.68,4.416,6.108,7.154,10.815,6.681c1.367-0.138,2.696-0.207,3.954-0.207    c17.418,0,32.144,11.84,36.67,27.955H298.979z"/></g><path d="m60 120c-33.085938 0-60 26.914062-60 60v45c0 74.4375 60.5625 135 135 135h15v152h150v-212h15.003906c74.4375-.003906 134.996094-60.5625 134.996094-135v-75c0-33.085938-26.914062-60-60-60s-60 26.914062-60 60v75c0 8.269531-6.730469 15-15 15h-15v-105c0-41.355469-33.644531-75-75-75s-75 33.644531-75 75v165h-15c-8.269531 0-15-6.730469-15-15v-45c0-33.085938-26.914062-60-60-60zm120 150h30v-30h-30v-120h30v-30h-30v-15c0-24.8125 20.1875-45 45-45s45 20.1875 45 45v75h-30v30h30v30h45c24.8125 0 45-20.1875 45-45v-45h28.800781v-30h-28.800781c0-16.542969 13.457031-30 30-30s30 13.457031 30 30v60h-30v29.988281h28.925781c-7.304687 50.816407-51.121093 90.011719-103.921875 90.011719l-45.003906.003906v89.996094h-30v30h30v92h-90zm-45 0h15v60h-15c-41.800781 0-77.972656-24.558594-94.855469-60h18.65625v-30h-27.726562c-.703125-4.902344-1.074219-9.90625-1.074219-15v-45c0-16.542969 13.457031-30 30-30s30 13.457031 30 30h-30v30h30v15c0 24.8125 20.1875 45 45 45zm0 0" transform="matrix(0.06161537766456604 0 0 0.06161537766456604 36.50372752547264 327.2264633178711)" id="L1_11"/><g transform="matrix(0.06382234618341097 0.014728233402101444 -0.014728233402101444 0.06382234618341097 187.58578017520273 21.736952421517692)" id="L1_12"><path d="M127.247,220.072c-4.411,0-8,3.589-8,8s3.589,8,8,8s8-3.589,8-8S131.658,220.072,127.247,220.072z"/><path d="M98.523,191.348c-4.411,0-8,3.589-8,8s3.589,8,8,8s8-3.589,8-8S102.935,191.348,98.523,191.348z"/><path d="M421.133,34.309h-9.984c-6.095-9.344-16.598-15.16-27.95-15.16h-18.356V7.5c0-4.142-3.357-7.5-7.5-7.5s-7.5,3.358-7.5,7.5   v169.952c0,8.489-5.654,15.587-13.482,17.705c-16.462-28.18-44.24-48.474-75.959-55.529c-3.182-39.755-36.551-71.131-77.11-71.131   s-73.929,31.374-77.11,71.129c-24.718,5.484-47.185,18.955-63.779,38.364c-18.136,21.212-28.123,48.283-28.123,76.228v100.605   c0,4.142,3.357,7.5,7.5,7.5s7.5-3.358,7.5-7.5v-73.79c4.8,2.964,10.449,4.678,16.493,4.678h11.814V457.5c0,4.142,3.357,7.5,7.5,7.5   s7.5-3.358,7.5-7.5v-95.7c26.957-3.673,47.801-26.83,47.801-54.778v-21.311h151.135V457.5c0,4.142,3.357,7.5,7.5,7.5   s7.5-3.358,7.5-7.5v-95.7c26.957-3.673,47.801-26.83,47.801-54.778v-21.311h22.823c32.76,0,59.411-26.651,59.411-59.411V93.49   h4.577c16.315,0,29.59-13.274,29.59-29.591C450.723,47.583,437.448,34.309,421.133,34.309z M421.133,78.49h-12.077   c-4.143,0-7.5,3.358-7.5,7.5v140.311c0,24.488-19.923,44.411-44.411,44.411h-30.323c-4.143,0-7.5,3.358-7.5,7.5v28.811   c0,19.66-14.15,36.077-32.801,39.601v-68.412c0-4.142-3.357-7.5-7.5-7.5H112.886c-4.143,0-7.5,3.358-7.5,7.5v28.811   c0,19.66-14.15,36.077-32.801,39.601v-68.412c0-4.142-3.357-7.5-7.5-7.5H45.771c-9.095,0-16.493-7.399-16.493-16.494   c0-50.245,35.911-92.707,85.389-100.966c3.616-0.604,6.266-3.732,6.266-7.397c0-34.384,27.974-62.358,62.358-62.358   s62.358,27.974,62.358,62.358c0,3.666,2.649,6.794,6.265,7.397c31.346,5.232,58.91,25.24,73.736,53.519   c1.334,2.543,4.009,4.112,6.873,4.014c18.123-0.558,32.319-15.2,32.319-33.333V34.149h18.356c7.176,0,13.735,4.227,16.713,10.767   c1.218,2.676,3.887,4.393,6.826,4.393h14.396c8.045,0,14.59,6.545,14.59,14.59C435.723,71.945,429.178,78.49,421.133,78.49z"/></g><g transform="matrix(0.14034201204776764 0 0 0.14034201204776764 175.99999838963026 176)" id="L1_13"><path d="M298.356,45.408c-22.07,0-40.026,17.956-40.026,40.027c0,22.07,17.956,40.025,40.026,40.025   c22.07,0,40.025-17.955,40.025-40.025C338.382,63.364,320.426,45.408,298.356,45.408z M298.356,113.461   c-15.454,0-28.026-12.572-28.026-28.025c0-15.454,12.572-28.027,28.026-28.027c15.453,0,28.025,12.573,28.025,28.027   C326.382,100.889,313.809,113.461,298.356,113.461z"/><path d="M216.464,253.783l-33.622,10.085c-3.688,1.105-5.742-0.988-4.564-4.654l5.105-15.891c1.177-3.665-0.43-7.49-3.572-8.499   c-3.142-1.009-6.676,1.164-7.853,4.829l-7.627,23.744c-1.177,3.666-5.158,7.57-8.846,8.676l-13.292,3.987   c-3.688,1.105-6.083-1.077-5.324-4.852l8.667-43.066c0.759-3.774,3.117-9.49,5.24-12.702l1.719-2.602   c2.122-3.212,6.966-6.356,10.764-6.988l49.743-8.27c3.798-0.632,6.462-3.813,5.921-7.067s-4.091-5.402-7.889-4.77l-38.744,6.441   c-3.798,0.632-5.168-1.479-3.046-4.691l11.716-17.73c2.123-3.212,1.607-7.328-1.146-9.147c-2.753-1.819-6.743-0.68-8.865,2.532   L145.24,202.05c-2.122,3.212-5.54,3.176-7.594-0.08l-12.236-19.396c-2.054-3.257-6.019-4.48-8.81-2.72   c-2.791,1.761-3.394,5.865-1.34,9.122l15.913,25.223c2.054,3.257,3.113,9.009,2.354,12.783l-14.773,73.413   c-0.759,3.774-3.04,4.185-5.069,0.913l-30.64-49.426c-2.028-3.271-2.295-8.774-0.593-12.229l12.382-25.119   c1.702-3.453,0.673-7.472-2.287-8.931s-6.774,0.173-8.477,3.626l-8.898,18.053c-1.702,3.453-4.646,3.537-6.541,0.186l-8.041-14.214   c-1.896-3.351-5.797-4.764-8.669-3.139c-2.872,1.625-3.671,5.696-1.775,9.047l12.066,21.329c1.896,3.352,3.445,6.096,3.443,6.1   c-0.002,0.004,0.037,0.072,0.086,0.151c0.049,0.079,0.137,0.228,0.195,0.331c0.058,0.104,0.109,0.186,0.114,0.184   c0.004-0.003,1.667,2.672,3.695,5.944l7.142,11.52c2.028,3.272,0.569,6.389-3.244,6.925l-23.761,3.345   c-3.813,0.537-6.555,3.649-6.095,6.917c0.46,3.267,3.956,5.502,7.768,4.966l28.998-4.082c3.813-0.536,8.591,1.701,10.62,4.974   l18.344,29.592c2.029,3.272,3.589,5.949,3.468,5.949c-0.122,0-0.221,3.149-0.221,7v78.221c0,3.851-3.15,7-7,7H68.108   c-3.85,0-7,2.7-7,6c0,3.3,3.15,6,7,6h104.307c3.85,0,7-2.7,7-6c0-3.3-3.15-6-7-6h-37.65c-3.85,0-7-3.149-7-7v-73.22   c0-3.85,3.119-7.44,6.931-7.978l50.969-7.198c3.812-0.538,6.554-3.652,6.092-6.92c-0.462-3.268-3.958-5.501-7.77-4.963   l-49.236,6.953c-3.812,0.538-6.31-2.109-5.55-5.884l2.224-11.051c0.759-3.775,4.398-7.768,8.086-8.873l80.402-24.116   c3.688-1.105,5.929-4.597,4.981-7.758S220.152,252.678,216.464,253.783z"/><path d="M298.356,36.406c3.313,0,6-2.687,6-6V6c0-3.313-2.687-6-6-6s-6,2.687-6,6v24.406   C292.356,33.72,295.043,36.406,298.356,36.406z"/><path d="M298.356,134.463c-3.313,0-6,2.687-6,6v24.406c0,3.314,2.687,6,6,6s6-2.686,6-6v-24.406   C304.356,137.149,301.67,134.463,298.356,134.463z"/><path d="M255.202,50.766c1.171,1.172,2.707,1.758,4.243,1.758c1.535,0,3.071-0.586,4.243-1.757c2.343-2.344,2.343-6.143,0-8.485   l-14.001-14.002c-2.342-2.344-6.141-2.343-8.485-0.001c-2.343,2.344-2.343,6.143,0,8.485L255.202,50.766z"/><path d="M341.51,120.104c-2.342-2.344-6.141-2.343-8.485-0.001c-2.343,2.344-2.343,6.143,0,8.485l14.001,14.002   c1.171,1.172,2.707,1.758,4.243,1.758c1.535,0,3.071-0.586,4.243-1.757c2.343-2.344,2.343-6.143,0-8.485L341.51,120.104z"/><path d="M218.922,91.436h24.406c3.314,0,6-2.687,6-6s-2.686-6-6-6h-24.406c-3.314,0-6,2.687-6,6S215.608,91.436,218.922,91.436z"/><path d="M377.791,79.436h-24.406c-3.314,0-6,2.687-6,6s2.686,6,6,6h24.406c3.313,0,6-2.687,6-6S381.104,79.436,377.791,79.436z"/><path d="M337.267,52.523c1.536,0,3.071-0.586,4.243-1.758l14.001-14.002c2.343-2.343,2.343-6.142,0-8.485   c-2.344-2.342-6.143-2.343-8.485,0.001l-14.001,14.002c-2.343,2.343-2.343,6.142,0,8.485   C334.197,51.938,335.732,52.523,337.267,52.523z"/><path d="M255.202,120.104l-14.001,14.002c-2.343,2.343-2.343,6.142,0,8.485c1.172,1.171,2.707,1.757,4.243,1.757   c1.536,0,3.071-0.586,4.243-1.758l14.001-14.002c2.343-2.343,2.343-6.142,0-8.485C261.344,117.761,257.545,117.76,255.202,120.104z   "/></g><g transform="matrix(0.127766415476799 0 0 0.127766415476799 109 273.9999998908246)" id="L1_14"><path d="M210.489,332.797c2.289,0,4.547-1.046,6.018-3.02c2.483-3.362,1.774-8.057-1.56-10.516   c-29.719-21.922-64.327-44.785-112.896-58.268v-29.169h2.552c15.111,0,27.405-12.294,27.405-27.405v-38.529   c0-4.142-3.358-7.5-7.5-7.5s-7.5,3.358-7.5,7.5v38.529c0,6.84-5.565,12.405-12.405,12.405h-2.552V132.05c0-4.142-3.358-7.5-7.5-7.5   s-7.5,3.358-7.5,7.5v54.818h-2.552c-6.84,0-12.405-5.565-12.405-12.405v-28.543c0-4.142-3.358-7.5-7.5-7.5s-7.5,3.358-7.5,7.5   v28.543c0,15.111,12.294,27.405,27.405,27.405h2.552v55.374c-23.214-5.189-49.448-8.263-79.551-8.263c-4.142,0-7.5,3.358-7.5,7.5   s3.358,7.5,7.5,7.5c98.946,0,154.365,34.766,198.542,67.353C207.382,332.32,208.942,332.797,210.489,332.797z"/><path d="M462.107,248.979c-116.134,0-174.972,45.194-231.873,88.901c-0.51,0.392-1.02,0.783-1.53,1.175   C171.826,382.739,117.552,423.677,7.5,423.677c-4.142,0-7.5,3.358-7.5,7.5s3.358,7.5,7.5,7.5   c116.134,0,174.972-45.194,231.873-88.901c57.441-44.122,111.696-85.797,222.735-85.797c4.142,0,7.5-3.358,7.5-7.5   S466.25,248.979,462.107,248.979z"/><path d="M319.866,200.6c51.23,0,92.908-41.678,92.908-92.908c0-51.23-41.678-92.909-92.908-92.909s-92.909,41.679-92.909,92.909   C226.958,158.921,268.636,200.6,319.866,200.6z M397.774,107.691c0,42.959-34.949,77.908-77.908,77.908   s-77.909-34.949-77.909-77.908c0-42.959,34.95-77.909,77.909-77.909S397.774,64.732,397.774,107.691z"/><path d="M389.196,454.825c4.411,0,8-3.588,8-8c0-4.411-3.588-7.999-8-7.999c-4.411,0-7.999,3.588-7.999,7.999   C381.197,451.237,384.786,454.825,389.196,454.825z"/><path d="M226.958,421.692c0,4.411,3.588,8,8,8c4.411,0,7.999-3.588,7.999-8c0-4.411-3.588-7.999-7.999-7.999   C230.546,413.693,226.958,417.281,226.958,421.692z"/><path d="M419.153,419.706c4.411,0,7.999-3.588,7.999-7.999c0-4.411-3.588-8-7.999-8c-4.411,0-8,3.588-8,8   C411.154,416.117,414.742,419.706,419.153,419.706z"/></g><path d="M389.702,141.782l-20.269,2.739l-6.864-2.963c0.807-1.688,1.584-3.401,2.33-5.131  c5.937-13.75,9.411-27.471,9.907-38.558c19.522-1.771,34.868-18.229,34.868-38.205c0-21.153-17.21-38.363-38.363-38.363  s-38.363,17.209-38.363,38.363c0,7.777,2.327,15.023,6.321,21.075c-8.15,7.916-16.215,20.321-22.51,34.906  c-0.749,1.734-1.462,3.476-2.136,5.216l-4.647-2.006l-2.021-17.921c-0.495-4.39-4.454-7.547-8.846-7.053  c-4.391,0.495-7.548,4.456-7.053,8.846l1.133,10.048l-9.585-3.223c-4.187-1.408-8.725,0.845-10.133,5.033s0.846,8.725,5.033,10.133  l17.442,5.865c2.924,12.217,2.103,24.105-2.426,34.597c-5.01,11.604-14.374,21.079-27.08,27.403  c-3.494,1.739-5.224,5.746-4.092,9.481c4.113,13.582,3.64,26.894-1.37,38.497c-2.333,5.403-5.604,10.361-9.725,14.738  c-3.027,3.218-2.874,8.281,0.344,11.309c3.218,3.029,8.281,2.874,11.309-0.343c5.396-5.734,9.689-12.248,12.762-19.361  c5.727-13.267,6.96-28.062,3.649-43.139c13.243-7.933,23.165-18.978,28.893-32.243c4.537-10.511,6.253-21.981,5.124-33.789  l2.814,1.215c2.077,0.896,4.437,0.872,6.496-0.068c2.058-0.94,3.621-2.708,4.303-4.866c1.253-3.965,2.767-8.012,4.5-12.028  c6.358-14.729,13.613-24.638,19.216-30c2.547,1.633,5.299,2.973,8.207,3.972c-0.161,9.08-3.331,21.779-8.664,34.132  c-1.72,3.989-3.625,7.865-5.664,11.52c-1.103,1.976-1.316,4.326-0.589,6.469c0.727,2.143,2.327,3.877,4.404,4.773l2.816,1.216  c-9.368,7.278-16.539,16.395-21.076,26.904c-2.456,5.69-4.095,11.679-4.895,17.871c-11.985,4.334-20.574,15.827-20.574,29.289  c0,4.405,0.92,8.6,2.577,12.402c-3.957,4.826-7.191,10.127-9.648,15.821c-5.727,13.264-6.96,28.061-3.649,43.139  c-13.244,7.933-23.168,18.979-28.893,32.245c-1.751,4.056,0.118,8.764,4.175,10.515c1.033,0.446,2.108,0.657,3.166,0.657  c3.096,0,6.044-1.809,7.349-4.832c4.521-10.475,12.591-19.215,23.465-25.469l8.163,4.477c3.873,2.125,8.737,0.708,10.861-3.167  c2.124-3.874,0.706-8.736-3.168-10.861l-9.004-4.938c-3.161-12.51-2.406-24.698,2.225-35.424c1.421-3.292,3.188-6.414,5.281-9.341  c5.129,3.718,11.43,5.912,18.234,5.912c17.167,0,31.134-13.967,31.134-31.135c0-15.166-10.902-27.834-25.281-30.58  c0.694-3.529,1.754-6.953,3.172-10.238c4.154-9.622,11.301-17.78,20.864-23.891l8.176,12.726c2.388,3.718,7.338,4.795,11.055,2.407  s4.795-7.337,2.406-11.055l-5.465-8.508l10.02-1.354c4.379-0.591,7.448-4.621,6.856-8.999  C398.11,144.26,394.089,141.189,389.702,141.782z M350.899,228.13c0,8.345-6.789,15.135-15.134,15.135s-15.134-6.79-15.134-15.135  c0-9.217,6.403-15.132,15.134-15.132C344.11,212.998,350.899,219.786,350.899,228.13z M348.948,59.664  c0-12.331,10.032-22.363,22.363-22.363s22.363,10.032,22.363,22.363c0,12.331-10.032,22.362-22.363,22.362  c-2.902,0-5.985-0.78-7.106-1.157C355.347,77.894,348.948,69.512,348.948,59.664z M389.326,365.632  c0,14.568-19.558,25.562-59.79,33.608c-34.91,6.982-81.217,10.827-130.389,10.827c-49.173,0-95.479-3.845-130.39-10.827  c-40.232-8.046-59.79-19.04-59.79-33.608c0-15.355,21.718-26.76,66.394-34.865c4.347-0.789,8.51,2.097,9.299,6.443  c0.789,4.348-2.096,8.511-6.443,9.3c-41.029,7.443-52.373,16.414-53.231,19.122c0.821,2.578,11.464,11.158,49.82,18.488  c33.565,6.415,77.724,9.947,124.342,9.947c46.617,0,90.775-3.533,124.341-9.947c38.354-7.33,48.998-15.909,49.82-18.488  c-0.858-2.708-12.202-11.678-53.233-19.122c-4.348-0.789-7.232-4.952-6.443-9.299c0.788-4.347,4.95-7.233,9.299-6.444  C367.609,338.872,389.326,350.276,389.326,365.632z M149.677,132.92c-2.329-3.754-1.174-8.686,2.581-11.015  c3.754-2.33,8.688-1.172,11.016,2.582l1.121,1.808c4.614-7.357,7.015-15.224,7.015-23.171c0-11.131-4.709-22.107-13.617-31.74  c-2.159-2.334-2.73-5.724-1.457-8.637s4.151-4.795,7.33-4.795h9.509c-0.051-1.442-0.076-2.894-0.076-4.348  C173.098,27.786,181.249,0,199.147,0c15.548,0,23.741,20.968,25.625,43.398c0.285,3.391,0.4,13.11,0.349,14.553h5.056l15.578-25.116  c2.329-3.754,7.26-4.911,11.016-2.582c3.755,2.329,4.91,7.26,2.582,11.015l-15.35,24.747l4.031,2.211  c3.874,2.125,5.292,6.987,3.168,10.861c-2.125,3.875-6.987,5.293-10.861,3.167l-5.857-3.212c-4.998,7.617-7.601,15.806-7.601,24.08  c0,10.77,4.41,21.396,12.77,30.803l10.783,5.914c3.874,2.124,5.292,6.987,3.168,10.861c-2.125,3.875-6.988,5.294-10.861,3.167  l-6.204-3.402c-6.337,8.425-9.655,17.659-9.655,27.002c0,11.128,4.71,22.104,13.62,31.739c2.835,3.066,2.835,7.796,0,10.862  c-8.91,9.639-13.62,20.615-13.62,31.743c0,11.129,4.71,22.105,13.62,31.741c2.835,3.066,2.835,7.797,0,10.863  c-8.91,9.637-13.62,20.612-13.62,31.741c0,11.129,4.71,22.105,13.62,31.742c2.999,3.244,2.801,8.306-0.443,11.305  c-1.538,1.422-3.486,2.126-5.429,2.126c-2.153,0-4.299-0.863-5.876-2.569c-11.692-12.645-17.872-27.377-17.872-42.604  c0-13.093,4.57-25.822,13.286-37.172c-8.716-11.349-13.286-24.078-13.286-37.172c0-13.093,4.57-25.822,13.286-37.173  c-8.715-11.349-13.286-24.078-13.286-37.171c0-13.094,4.571-25.824,13.286-37.174c-8.715-11.35-13.286-24.079-13.286-37.172  c0-10.096,2.718-19.976,7.956-29.172h-2.313c-2.275,0-4.443-0.969-5.961-2.665c-1.518-1.696-2.241-3.958-1.99-6.219  c0.413-3.713,0.622-7.571,0.622-11.464c0-23.49-7.139-36.32-10.05-37.565c-2.911,1.245-10.049,14.076-10.049,37.565  c0,3.903,0.208,7.761,0.619,11.467c0.251,2.261-0.474,4.522-1.99,6.217c-1.519,1.695-3.686,2.664-5.961,2.664h-2.311  c5.238,9.196,7.954,19.074,7.954,29.172c0,13.096-4.569,25.824-13.284,37.172c8.715,11.349,13.284,24.077,13.284,37.174  c0,13.096-4.569,25.823-13.284,37.171c8.714,11.35,13.284,24.079,13.284,37.173c0,13.097-4.569,25.825-13.284,37.172  c8.715,11.348,13.284,24.076,13.284,37.172c0,15.229-6.18,29.962-17.87,42.605c-3.001,3.244-8.062,3.442-11.306,0.442  c-3.244-3-3.441-8.061-0.442-11.305c8.909-9.634,13.618-20.61,13.618-31.742c0-10.771-4.409-21.397-12.768-30.803l-10.783-5.913  c-3.874-2.125-5.292-6.987-3.168-10.861c2.125-3.874,6.989-5.291,10.861-3.168l6.204,3.402c6.335-8.422,9.653-17.657,9.653-27.001  c0-11.13-4.709-22.107-13.618-31.743c-2.835-3.066-2.835-7.797,0.001-10.863c8.908-9.633,13.617-20.608,13.617-31.739  c0-11.089-4.673-22.024-13.516-31.632c-0.216-0.225-0.42-0.465-0.612-0.719c-0.178-0.236-0.342-0.479-0.491-0.729L149.677,132.92z   M43.752,153.873c3.993,11.031,4.295,23.197,0.928,35.514l-15.839-2.14c-4.38-0.59-8.408,2.479-8.999,6.857  c-0.592,4.378,2.479,8.408,6.856,9l10.019,1.354l-5.465,8.506c-2.389,3.717-1.311,8.667,2.406,11.055  c3.718,2.389,8.667,1.311,11.055-2.406l7.925-12.335c9.94,7.209,17.136,16.485,20.998,27.156  c3.992,11.029,4.294,23.196,0.928,35.514l-15.839-2.141c-4.384-0.593-8.408,2.479-8.999,6.856c-0.592,4.378,2.478,8.408,6.856,8.999  l10.02,1.354l-5.466,8.506c-2.389,3.717-1.312,8.667,2.406,11.055c3.716,2.388,8.667,1.311,11.055-2.406l7.925-12.334  c9.94,7.21,17.136,16.486,20.998,27.155c4.646,12.833,4.294,27.207-1.017,41.564c-1.533,4.144,0.584,8.746,4.728,10.278  c0.915,0.339,1.853,0.5,2.774,0.499c3.252,0,6.31-1.998,7.504-5.227c6.64-17.951,7.005-36.126,1.056-52.562  c-5.262-14.535-15.188-26.955-28.888-36.232c4.587-15.898,4.265-31.794-0.996-46.327c-5.262-14.538-15.188-26.958-28.888-36.233  c4.589-15.896,4.266-31.791-0.996-46.325c-4.236-11.706-11.498-22.039-21.32-30.464l3.972-1.438c2.128-0.771,3.83-2.405,4.685-4.5  c0.854-2.095,0.782-4.454-0.199-6.493c-1.938-4.027-3.731-8.307-5.328-12.72c-9.765-26.974-7.415-44.429-4.798-46.981  c3.645,0.285,16.623,12.191,26.388,39.167c1.596,4.407,2.957,8.843,4.048,13.185c0.551,2.194,2.006,4.052,4.003,5.114  s4.352,1.228,6.479,0.459l3.971-1.438c-2.153,12.757-1.119,25.344,3.118,37.053c2.303,6.359,5.495,12.32,9.526,17.803  c-5.334,5.59-8.613,13.158-8.613,21.477c0,15.312,11.109,28.077,25.69,30.658c0.702,4.306,1.799,8.529,3.279,12.621  c2.8,7.73,6.932,14.903,12.281,21.32c2.829,3.394,7.874,3.85,11.268,1.022c3.394-2.829,3.851-7.874,1.021-11.267  c-4.156-4.986-7.361-10.544-9.525-16.521c-1.004-2.775-1.779-5.631-2.321-8.542c11.985-4.334,20.574-15.828,20.574-29.29  c0-17.167-13.967-31.134-31.135-31.134c-3.058,0-6.014,0.443-8.807,1.268c-3.517-4.552-6.265-9.532-8.195-14.861  c-4.564-12.614-4.304-26.71,0.745-40.813l6.787-10.852c2.343-3.746,1.205-8.682-2.541-11.025c-3.749-2.345-8.682-1.205-11.025,2.541  l-5.769,9.226l-7.703,2.788c-0.655-2.08-1.36-4.162-2.111-6.237c-5.204-14.377-12.201-27.255-19.702-36.263  c-6.563-7.881-12.401-11.534-17.302-12.861l-1.758-15.588c-0.494-4.39-4.44-7.543-8.846-7.054c-4.391,0.495-7.548,4.456-7.053,8.846  l1.132,10.047l-9.583-3.223c-4.188-1.407-8.725,0.845-10.133,5.034c-1.408,4.188,0.846,8.724,5.033,10.132l10.758,3.617  c-1.412,3.879-2.303,8.944-2.301,15.548c0.003,11.721,2.87,26.095,8.074,40.471c0.751,2.076,1.542,4.127,2.369,6.145l-6.898,2.498  l-8.791-4.821c-3.872-2.124-8.736-0.707-10.861,3.167c-2.124,3.874-0.706,8.737,3.168,10.861l11.888,6.521  C29.67,130.257,39.115,141.06,43.752,153.873z M115.86,163.519c8.346,0,15.135,6.789,15.135,15.134s-6.789,15.134-15.135,15.134  c-8.345,0-15.133-6.789-15.133-15.134S107.515,163.519,115.86,163.519z" transform="matrix(0.10352018242411089 0.013802691402239341 -0.013802691402239341 0.10352018242411089 317.5960362110455 271.9461597093806)" id="L1_15"/></defs><g fi:class="KUsePattern"><pattern id="pattern_L1_1" width="350" height="350" patternUnits="userSpaceOnUse"><use xlink:href="#L1_1" x="-350" y="-350"/><use xlink:href="#L1_1" x="0" y="-350"/><use xlink:href="#L1_1" x="350" y="-350"/><use xlink:href="#L1_1" x="-350" y="0"/><use xlink:href="#L1_1" x="0" y="0"/><use xlink:href="#L1_1" x="350" y="0"/><use xlink:href="#L1_1" x="-350" y="350"/><use xlink:href="#L1_1" x="0" y="350"/><use xlink:href="#L1_1" x="350" y="350"/></pattern><rect x="0" y="0" width="100%" height="100%" fill="url(#pattern_L1_1)"/></g><g fi:class="KUsePattern"><pattern id="pattern_L1_3" width="350" height="350" patternUnits="userSpaceOnUse"><use xlink:href="#L1_3" x="-350" y="-350"/><use xlink:href="#L1_3" x="0" y="-350"/><use xlink:href="#L1_3" x="350" y="-350"/><use xlink:href="#L1_3" x="-350" y="0"/><use xlink:href="#L1_3" x="0" y="0"/><use xlink:href="#L1_3" x="350" y="0"/><use xlink:href="#L1_3" x="-350" y="350"/><use xlink:href="#L1_3" x="0" y="350"/><use xlink:href="#L1_3" x="350" y="350"/></pattern><rect x="0" y="0" width="100%" height="100%" fill="url(#pattern_L1_3)"/></g><g fi:class="KUsePattern"><pattern id="pattern_L1_4" width="350" height="350" patternUnits="userSpaceOnUse"><use xlink:href="#L1_4" x="-350" y="-350"/><use xlink:href="#L1_4" x="0" y="-350"/><use xlink:href="#L1_4" x="350" y="-350"/><use xlink:href="#L1_4" x="-350" y="0"/><use xlink:href="#L1_4" x="0" y="0"/><use xlink:href="#L1_4" x="350" y="0"/><use xlink:href="#L1_4" x="-350" y="350"/><use xlink:href="#L1_4" x="0" y="350"/><use xlink:href="#L1_4" x="350" y="350"/></pattern><rect x="0" y="0" width="100%" height="100%" fill="url(#pattern_L1_4)"/></g><g fi:class="KUsePattern"><pattern id="pattern_L1_5" width="350" height="350" patternUnits="userSpaceOnUse"><use xlink:href="#L1_5" x="-350" y="-350"/><use xlink:href="#L1_5" x="0" y="-350"/><use xlink:href="#L1_5" x="350" y="-350"/><use xlink:href="#L1_5" x="-350" y="0"/><use xlink:href="#L1_5" x="0" y="0"/><use xlink:href="#L1_5" x="350" y="0"/><use xlink:href="#L1_5" x="-350" y="350"/><use xlink:href="#L1_5" x="0" y="350"/><use xlink:href="#L1_5" x="350" y="350"/></pattern><rect x="0" y="0" width="100%" height="100%" fill="url(#pattern_L1_5)"/></g><g fi:class="KUsePattern"><pattern id="pattern_L1_6" width="350" height="350" patternUnits="userSpaceOnUse"><use xlink:href="#L1_6" x="-350" y="-350"/><use xlink:href="#L1_6" x="0" y="-350"/><use xlink:href="#L1_6" x="350" y="-350"/><use xlink:href="#L1_6" x="-350" y="0"/><use xlink:href="#L1_6" x="0" y="0"/><use xlink:href="#L1_6" x="350" y="0"/><use xlink:href="#L1_6" x="-350" y="350"/><use xlink:href="#L1_6" x="0" y="350"/><use xlink:href="#L1_6" x="350" y="350"/></pattern><rect x="0" y="0" width="100%" height="100%" fill="url(#pattern_L1_6)"/></g><g fi:class="KUsePattern"><pattern id="pattern_L1_7" width="350" height="350" patternUnits="userSpaceOnUse"><use xlink:href="#L1_7" x="-350" y="-350"/><use xlink:href="#L1_7" x="0" y="-350"/><use xlink:href="#L1_7" x="350" y="-350"/><use xlink:href="#L1_7" x="-350" y="0"/><use xlink:href="#L1_7" x="0" y="0"/><use xlink:href="#L1_7" x="350" y="0"/><use xlink:href="#L1_7" x="-350" y="350"/><use xlink:href="#L1_7" x="0" y="350"/><use xlink:href="#L1_7" x="350" y="350"/></pattern><rect x="0" y="0" width="100%" height="100%" fill="url(#pattern_L1_7)"/></g><g fi:class="KUsePattern"><pattern id="pattern_L1_8" width="350" height="350" patternUnits="userSpaceOnUse"><use xlink:href="#L1_8" x="-350" y="-350"/><use xlink:href="#L1_8" x="0" y="-350"/><use xlink:href="#L1_8" x="350" y="-350"/><use xlink:href="#L1_8" x="-350" y="0"/><use xlink:href="#L1_8" x="0" y="0"/><use xlink:href="#L1_8" x="350" y="0"/><use xlink:href="#L1_8" x="-350" y="350"/><use xlink:href="#L1_8" x="0" y="350"/><use xlink:href="#L1_8" x="350" y="350"/></pattern><rect x="0" y="0" width="100%" height="100%" fill="url(#pattern_L1_8)"/></g><g fi:class="KUsePattern"><pattern id="pattern_L1_9" width="350" height="350" patternUnits="userSpaceOnUse"><use xlink:href="#L1_9" x="-350" y="-350"/><use xlink:href="#L1_9" x="0" y="-350"/><use xlink:href="#L1_9" x="350" y="-350"/><use xlink:href="#L1_9" x="-350" y="0"/><use xlink:href="#L1_9" x="0" y="0"/><use xlink:href="#L1_9" x="350" y="0"/><use xlink:href="#L1_9" x="-350" y="350"/><use xlink:href="#L1_9" x="0" y="350"/><use xlink:href="#L1_9" x="350" y="350"/></pattern><rect x="0" y="0" width="100%" height="100%" fill="url(#pattern_L1_9)"/></g><g fi:class="KUsePattern"><pattern id="pattern_L1_10" width="350" height="350" patternUnits="userSpaceOnUse"><use xlink:href="#L1_10" x="-350" y="-350"/><use xlink:href="#L1_10" x="0" y="-350"/><use xlink:href="#L1_10" x="350" y="-350"/><use xlink:href="#L1_10" x="-350" y="0"/><use xlink:href="#L1_10" x="0" y="0"/><use xlink:href="#L1_10" x="350" y="0"/><use xlink:href="#L1_10" x="-350" y="350"/><use xlink:href="#L1_10" x="0" y="350"/><use xlink:href="#L1_10" x="350" y="350"/></pattern><rect x="0" y="0" width="100%" height="100%" fill="url(#pattern_L1_10)"/></g><g fi:class="KUsePattern"><pattern id="pattern_L1_11" width="350" height="350" patternUnits="userSpaceOnUse"><use xlink:href="#L1_11" x="-350" y="-350"/><use xlink:href="#L1_11" x="0" y="-350"/><use xlink:href="#L1_11" x="350" y="-350"/><use xlink:href="#L1_11" x="-350" y="0"/><use xlink:href="#L1_11" x="0" y="0"/><use xlink:href="#L1_11" x="350" y="0"/><use xlink:href="#L1_11" x="-350" y="350"/><use xlink:href="#L1_11" x="0" y="350"/><use xlink:href="#L1_11" x="350" y="350"/></pattern><rect x="0" y="0" width="100%" height="100%" fill="url(#pattern_L1_11)"/></g><g fi:class="KUsePattern"><pattern id="pattern_L1_12" width="350" height="350" patternUnits="userSpaceOnUse"><use xlink:href="#L1_12" x="-350" y="-350"/><use xlink:href="#L1_12" x="0" y="-350"/><use xlink:href="#L1_12" x="350" y="-350"/><use xlink:href="#L1_12" x="-350" y="0"/><use xlink:href="#L1_12" x="0" y="0"/><use xlink:href="#L1_12" x="350" y="0"/><use xlink:href="#L1_12" x="-350" y="350"/><use xlink:href="#L1_12" x="0" y="350"/><use xlink:href="#L1_12" x="350" y="350"/></pattern><rect x="0" y="0" width="100%" height="100%" fill="url(#pattern_L1_12)"/></g><g fi:class="KUsePattern"><pattern id="pattern_L1_13" width="350" height="350" patternUnits="userSpaceOnUse"><use xlink:href="#L1_13" x="-350" y="-350"/><use xlink:href="#L1_13" x="0" y="-350"/><use xlink:href="#L1_13" x="350" y="-350"/><use xlink:href="#L1_13" x="-350" y="0"/><use xlink:href="#L1_13" x="0" y="0"/><use xlink:href="#L1_13" x="350" y="0"/><use xlink:href="#L1_13" x="-350" y="350"/><use xlink:href="#L1_13" x="0" y="350"/><use xlink:href="#L1_13" x="350" y="350"/></pattern><rect x="0" y="0" width="100%" height="100%" fill="url(#pattern_L1_13)"/></g><g fi:class="KUsePattern"><pattern id="pattern_L1_14" width="350" height="350" patternUnits="userSpaceOnUse"><use xlink:href="#L1_14" x="-350" y="-350"/><use xlink:href="#L1_14" x="0" y="-350"/><use xlink:href="#L1_14" x="350" y="-350"/><use xlink:href="#L1_14" x="-350" y="0"/><use xlink:href="#L1_14" x="0" y="0"/><use xlink:href="#L1_14" x="350" y="0"/><use xlink:href="#L1_14" x="-350" y="350"/><use xlink:href="#L1_14" x="0" y="350"/><use xlink:href="#L1_14" x="350" y="350"/></pattern><rect x="0" y="0" width="100%" height="100%" fill="url(#pattern_L1_14)"/></g><g fi:class="KUsePattern"><pattern id="pattern_L1_15" width="350" height="350" patternUnits="userSpaceOnUse"><use xlink:href="#L1_15" x="-350" y="-350"/><use xlink:href="#L1_15" x="0" y="-350"/><use xlink:href="#L1_15" x="350" y="-350"/><use xlink:href="#L1_15" x="-350" y="0"/><use xlink:href="#L1_15" x="0" y="0"/><use xlink:href="#L1_15" x="350" y="0"/><use xlink:href="#L1_15" x="-350" y="350"/><use xlink:href="#L1_15" x="0" y="350"/><use xlink:href="#L1_15" x="350" y="350"/></pattern><rect x="0" y="0" width="100%" height="100%" fill="url(#pattern_L1_15)"/></g></svg>