<svg xmlns="http://www.w3.org/2000/svg" xmlns:xlink="http://www.w3.org/1999/xlink" version="1.1" x="0px" y="0px" viewBox="0 0 96 120" enable-background="new 0 0 96 96" xml:space="preserve">
    <path d="M87.887,31.354c-1.7-4.178-5.531-6.386-11.079-6.386c-3.686,0-6.826,0.986-7.024,1.051l-15.564,5.818L35.066,26.04  l-6.7,3.368l12.612,7.379l-18.463,6.902c-1.282-1.612-4.104-5.118-5.357-6.342l-0.351-0.342L8,35.999l8.785,23.503l1.339-0.494  c0,0,11.421-4.225,24.964-9.252l-5.489,21.275l9.826-2.506l9.114-23.767c7.822-2.911,15.371-5.729,21.005-7.849  c2.893-1.089,5.282-1.995,6.945-2.636c0.839-0.323,1.495-0.579,1.939-0.759C87.066,33.259,88.395,32.725,87.887,31.354z   M34.366,29.599l0.965-0.484L48.07,32.97l-4.792,1.844L34.366,29.599z M54.933,42.3l-0.605,0.226l-9.046,23.592l-3.698,0.941  l5.65-21.896l-2.571,0.954c-11.834,4.396-22.532,8.354-26.192,9.708l-6.148-16.447l3.167,0.362c1.696,1.801,5.384,6.491,5.423,6.542  l0.647,0.823l49.157-18.377c0.029-0.01,2.867-0.895,6.091-0.895c3.714,0,6.323,1.13,7.77,3.336  C81.951,32.194,74.559,34.997,54.933,42.3z" />
    </svg>