<?xml version="1.0"?>
<svg xmlns="http://www.w3.org/2000/svg" xmlns:xlink="http://www.w3.org/1999/xlink" version="1.1" id="Capa_1" x="0px" y="0px" viewBox="0 0 512 512" style="enable-background:new 0 0 512 512;" xml:space="preserve" width="24px" height="24px" class=""><g><link xmlns="" type="text/css" id="dark-mode" rel="stylesheet" href=""/><style xmlns="" type="text/css" id="dark-mode-custom-style"/><path style="fill:#F2E500" d="M277.873,29.25c-8.615,0-16.385,3.757-21.873,9.779c-1.541-1.69-3.267-3.195-5.136-4.495  c-5.108,6.4-8.18,14.616-8.18,23.577c0,17.635,16.137,35.047,31.878,47.839c14.926-10.978,33.42-28.081,33.42-45.44  C307.982,43.245,294.502,29.25,277.873,29.25z" data-original="#FF5D5D" class="" data-old_color="#f2e500"/><path style="fill:#F2E500" d="M407.622,502H192.045c-22.3,0-40.378-18.078-40.378-40.378V158.378  c0-22.3,18.078-40.378,40.378-40.378h215.576c22.3,0,40.378,18.078,40.378,40.378v303.243C448,483.922,429.922,502,407.622,502z" data-original="#FFB954" class="" data-old_color="#f2e500"/><polygon style="fill:#FFFFFF;" points="180.957,118 140.44,118 64,194.44 64,299 104.516,258.484 104.516,194.44 " data-original="#FFFFFF" class=""/><polygon style="fill:#DFDFDF" points="180.957,118 104.516,194.44 104.516,258.484 245,118 " data-original="#FF8E4B" class="active-path" data-old_color="#DFDDDD"/><path style="fill:#FFFFFF;" d="M117.674,408.837l290.432-290.432c-1.987-0.262-4.012-0.406-6.071-0.406h-47.198L64,408.837v47.198  c0,19.259,11.849,35.741,28.651,42.581l27.546-27.546c-1.631-4.711-2.523-9.768-2.523-15.034  C117.674,456.036,117.674,408.837,117.674,408.837z" data-original="#FFFFFF" class=""/><path style="fill:#DFDFDF" d="M408.106,118.406L117.674,408.837v47.198c0,5.267,0.892,10.323,2.523,15.034l324.418-324.418  C438.508,131.646,424.706,120.598,408.106,118.406z" data-original="#FF8E4B" class="active-path" data-old_color="#DFDDDD"/><polygon style="fill:#FFFFFF;" points="448,249.016 195.016,502 250.016,502 448,304.016 " data-original="#FFFFFF" class=""/><polygon style="fill:#DFDFDF" points="448,304.016 250.016,502 319.336,502 448,373.336 " data-original="#FF8E4B" class="active-path" data-old_color="#DFDDDD"/><rect x="220" y="118" style="fill:#FFFFFF;" width="72" height="384" data-original="#FFFFFF" class=""/><path d="M402.035,108h-80.379C353.201,86.797,374,50.783,374,10c0-5.522-4.478-10-10-10s-10,4.478-10,10  c0,38.522-22.345,71.918-54.752,87.924c10.365-10.739,18.734-23.666,18.734-37.414c0-22.751-17.993-41.26-40.109-41.26  c-7.8,0-15.412,2.372-21.873,6.687c-6.461-4.314-14.073-6.687-21.873-6.687c-22.116,0-40.109,18.509-40.109,41.26  c0,13.748,8.37,26.675,18.734,37.414C180.345,81.918,158,48.522,158,10c0-5.522-4.478-10-10-10s-10,4.478-10,10  c0,40.783,20.799,76.797,52.344,98h-80.379C79.105,108,54,133.105,54,163.965v292.07C54,486.895,79.105,512,109.965,512h292.07  c30.86,0,55.965-25.105,55.965-55.965v-292.07C458,133.105,432.895,108,402.035,108z M302,492v-80.857l95.764-95.764  c3.905-3.905,3.905-10.237,0-14.143c-3.906-3.904-10.236-3.904-14.143,0L302,382.857v-79.715l136-136V370.35  c-0.739,0.427-1.439,0.946-2.071,1.578L315.857,492H302z M302,128h26.857L302,154.857V128z M432.294,144.563L302,274.857v-91.715  L357.143,128h44.893C414.724,128,425.89,134.611,432.294,144.563z M234.127,39.25c5.51,0,10.653,2.313,14.482,6.516  c1.896,2.078,4.578,3.263,7.391,3.263c2.813,0,5.495-1.185,7.391-3.263c3.829-4.202,8.973-6.516,14.482-6.516  c11.088,0,20.109,9.537,20.109,21.26c0,15.396-24.045,35.124-41.982,45.95c-17.941-10.829-41.982-30.555-41.982-45.95  C214.018,48.787,223.039,39.25,234.127,39.25z M74,303.143l136-136v79.715l-136,136V303.143z M210,139.08  c-0.462,0.326-0.908,0.686-1.321,1.099L74,274.857v-76.273L144.583,128H210V139.08z M109.965,128h6.333L74,170.299v-6.334  C74,144.134,90.134,128,109.965,128z M74,411.143l136-136v91.77c-0.194,0.166-0.388,0.333-0.571,0.516l-22.333,22.333  c-3.905,3.905-3.905,10.237,0,14.143c1.953,1.952,4.512,2.929,7.071,2.929s5.118-0.977,7.071-2.929l8.762-8.762v79.715L192.857,492  h-79.715l31.096-31.096c3.905-3.905,3.905-10.237,0-14.143c-3.906-3.904-10.236-3.904-14.143,0l-39.532,39.532  C80.611,479.89,74,468.724,74,456.035V411.143z M230,492V128h52v364H230z M402.035,492h-57.893L438,398.143v57.893  C438,475.866,421.866,492,402.035,492z" data-original="#000000" class="" style="fill:#020202" data-old_color="#050404"/><path d="M164.33,436.67c2.64,0,5.21-1.07,7.069-2.93c1.87-1.87,2.931-4.44,2.931-7.07s-1.061-5.21-2.931-7.08  c-1.859-1.86-4.439-2.93-7.069-2.93s-5.2,1.069-7.07,2.93c-1.86,1.87-2.93,4.44-2.93,7.08c0,2.63,1.069,5.2,2.93,7.07  C159.12,435.6,161.7,436.67,164.33,436.67z" data-original="#000000" class="" style="fill:#020202" data-old_color="#050404"/><path d="M415.17,273.83c-2.64,0-5.21,1.069-7.07,2.93c-1.859,1.86-2.93,4.44-2.93,7.07c0,2.64,1.07,5.21,2.93,7.069  c1.86,1.87,4.431,2.931,7.07,2.931c2.63,0,5.2-1.061,7.07-2.931c1.859-1.859,2.93-4.439,2.93-7.069s-1.07-5.21-2.93-7.07  C420.38,274.899,417.8,273.83,415.17,273.83z" data-original="#000000" class="" style="fill:#020202" data-old_color="#050404"/></g> </svg>
