<svg xmlns="http://www.w3.org/2000/svg" xmlns:xlink="http://www.w3.org/1999/xlink" version="1.1" x="0px" y="0px" viewBox="0 0 100 125" style="enable-background:new 0 0 100 100;" xml:space="preserve"><g><path d="M87.7,47.8C87.7,25.3,69.4,7,46.8,7S6,25.3,6,47.8s18.3,40.8,40.8,40.8c10.5,0,20.2-4,27.4-10.6l14.7,14.7l2.8-2.8   L77.1,75.3C83.7,68,87.7,58.4,87.7,47.8z M46.8,84.7C26.5,84.7,10,68.2,10,47.8S26.5,11,46.8,11s36.8,16.5,36.8,36.8   S67.2,84.7,46.8,84.7z"/><path d="M73.5,47.8c0,14.7-12,26.7-26.7,26.7v4c16.9,0,30.7-13.8,30.7-30.7H73.5z"/></g></svg>