<svg xmlns="http://www.w3.org/2000/svg" xmlns:xlink="http://www.w3.org/1999/xlink" version="1.1" x="0px" y="0px" viewBox="0 0 100 100" style="enable-background:new 0 0 100 100;" xml:space="preserve">
    <g>
        <path style="" d="M36.801,62.881c-0.618-0.127-1.528,0.014-2.792,0.208c-4.805,0.743-9.65,1.064-11.541-3.728   c-1.987-5.036,3.922-8.179,8.538-10.106c0.834-0.348,1.084-0.453,1.278-0.675c1.137-1.313-1.042-4.349-1.275-4.602   c0.031-0.205,0.528-0.759,0.857-1.126c1.211-1.354,3.24-3.618,1.403-6.788c-0.569-0.983-2.211-1.263-5.575-1.754   c-3.514-0.513-8.326-1.216-9.599-3.318C14.138,24.466,8.036,19.189,7.779,18.967c-0.348-0.298-0.875-0.259-1.174,0.089   c-0.301,0.349-0.26,0.874,0.088,1.174c0.062,0.052,6.159,5.323,9.978,11.625c1.68,2.773,6.728,3.51,10.785,4.102   c1.697,0.248,4.022,0.588,4.374,0.941c1.143,1.973,0.223,3.252-1.203,4.843c-0.845,0.944-1.803,2.013-0.976,3.136   c0.829,1.124,1.232,2.156,1.291,2.6c-0.145,0.063-0.341,0.144-0.577,0.241c-3.032,1.266-12.259,5.116-9.443,12.254   c2.538,6.43,9.567,5.344,13.342,4.762c0.826-0.127,1.683-0.256,2.078-0.237c0.616,0.674,2.345,4.501,2.434,7.791   c0.026,0.958-0.093,2.236-0.805,2.884c-2.328,2.115-5.328,3.368-8.229,4.58c-4.548,1.9-8.843,3.695-8.793,8.54   c0.005,0.457,0.377,0.824,0.832,0.824c0.003,0,0.007,0,0.008,0c0.46-0.005,0.829-0.381,0.824-0.841   c-0.037-3.544,2.928-4.963,7.77-6.986c2.889-1.207,6.165-2.576,8.705-4.884c2.026-1.841,1.332-5.765,0.738-7.94   C39.812,68.412,38.375,63.209,36.801,62.881z" fill="#7fc7af" />
        <path style="" d="M89.689,23.373c-3.862-5.844-9.767-9.834-16.63-11.236c-1.74-0.356-3.514-0.536-5.274-0.536   c-12.388,0-23.182,8.822-25.667,20.977c-0.902,4.419-0.642,9.016,0.785,13.409c-0.475,1.089-3.159,5.8-5.6,9.95   c-0.156,0.264-0.153,0.592,0.005,0.854c0.159,0.263,0.452,0.415,0.756,0.4l11.437-0.598c3.601,3.523,8.108,5.914,13.061,6.926   c1.74,0.356,3.514,0.536,5.274,0.536c12.388,0,23.182-8.822,25.665-20.977C94.903,36.216,93.549,29.218,89.689,23.373z    M91.869,42.744C89.544,54.128,79.437,62.39,67.837,62.39c-1.649,0-3.312-0.168-4.941-0.502c-4.761-0.973-9.084-3.308-12.498-6.752   c-0.163-0.163-0.376-0.246-0.592-0.246c-0.078,0-0.156,0.011-0.233,0.033l-10.051,0.524c5.287-9.025,5.187-9.318,5.009-9.839   c-1.372-4.088-1.642-8.477-0.78-12.696c2.327-11.384,12.433-19.646,24.034-19.646c1.649,0,3.312,0.168,4.943,0.502   c6.426,1.313,11.955,5.05,15.571,10.523S93.183,36.318,91.869,42.744z" fill="#7fc7af" />
        <path style="" d="M80.013,45.237c-0.001-0.002-0.002-0.004-0.002-0.006l-5.609-13.044   c-0.166-0.385-0.587-0.564-0.978-0.46c-0.393-0.106-0.816,0.073-0.98,0.459l-3.609,8.392c-0.045-0.039-0.083-0.085-0.137-0.115   c-1.424-0.775-3.392-1.998-5.299-3.643c2.432-2.427,4.528-5.577,5.194-9.467h3.901c0.46,0,0.832-0.372,0.832-0.832   c0-0.46-0.372-0.832-0.832-0.832h-9.294v-2.015c0-0.46-0.372-0.832-0.832-0.832c-0.46,0-0.832,0.372-0.832,0.832v2.015h-9.294   c-0.46,0-0.832,0.372-0.832,0.832c0,0.46,0.372,0.832,0.832,0.832H66.9c-0.656,3.356-2.544,6.137-4.738,8.311   c-1.58-1.565-3.025-3.426-3.949-5.615c-0.18-0.425-0.673-0.622-1.091-0.443c-0.424,0.178-0.623,0.667-0.444,1.09   c1.008,2.388,2.567,4.406,4.264,6.097c-3.632,3.141-7.517,4.749-7.587,4.777c-0.428,0.172-0.632,0.657-0.462,1.084   c0.132,0.324,0.444,0.521,0.772,0.521c0.104,0,0.21-0.02,0.311-0.06c0.303-0.122,4.391-1.812,8.203-5.149   c2.061,1.802,4.189,3.127,5.723,3.961c0.102,0.055,0.211,0.07,0.319,0.081l-1.386,3.222c-0.001,0.003-0.002,0.006-0.004,0.009   l-2.758,6.414c-0.182,0.423,0.013,0.912,0.436,1.094c0.107,0.046,0.218,0.067,0.328,0.067c0.322,0,0.629-0.189,0.764-0.503   l2.546-5.921h10.551l2.545,5.92c0.135,0.315,0.442,0.504,0.764,0.504c0.111,0,0.221-0.022,0.328-0.067   c0.423-0.182,0.618-0.671,0.436-1.094L80.013,45.237z M68.863,44.726l4.56-10.603l4.559,10.603H68.863z" fill="#7fc7af" />
    </g>
</svg>
